<svg width="19" height="17" viewBox="0 0 19 17" fill="none" xmlns="http://www.w3.org/2000/svg">
<path fill-rule="evenodd" clip-rule="evenodd" d="M7.3891 17H11.6109C14.5758 17 16.0588 17 17.1237 16.3058C17.5834 16.0066 17.9792 15.6202 18.2884 15.1687C19 14.1298 19 12.682 19 9.78824C19 6.89447 19 5.44664 18.2884 4.40775C17.9792 3.9563 17.5834 3.5699 17.1237 3.27065C16.4397 2.82393 15.5828 2.66431 14.2709 2.60765C13.6448 2.60765 13.1062 2.14487 12.9836 1.54515C12.89 1.10586 12.6467 0.712187 12.2948 0.430663C11.9429 0.149139 11.504 -0.00297009 11.0523 4.39457e-05H7.9477C7.0091 4.39457e-05 6.20065 0.646987 6.01635 1.54515C5.8938 2.14487 5.35515 2.60765 4.7291 2.60765C3.4181 2.66431 2.5612 2.82487 1.87625 3.27065C1.41696 3.57 1.02151 3.9564 0.7125 4.40775C0 5.44664 0 6.89353 0 9.78824C0 12.683 5.66244e-08 14.1289 0.71155 15.1687C1.01935 15.6183 1.41455 16.0046 1.87625 16.3058C2.9412 17 4.42415 17 7.3891 17ZM9.5 5.92453C7.31405 5.92453 5.54135 7.6538 5.54135 9.7873C5.54135 11.9208 7.315 13.6529 9.5 13.6529C11.685 13.6529 13.4586 11.9227 13.4586 9.78919C13.4586 7.65569 11.685 5.92453 9.5 5.92453ZM9.5 7.46964C8.189 7.46964 7.125 8.50758 7.125 9.78824C7.125 11.068 8.189 12.1059 9.5 12.1059C10.811 12.1059 11.875 11.068 11.875 9.78824C11.875 8.50852 10.811 7.46964 9.5 7.46964ZM13.9859 6.69708C13.9859 6.27019 14.3403 5.92453 14.7782 5.92453H15.8327C16.2697 5.92453 16.625 6.27019 16.625 6.69708C16.623 6.90382 16.5385 7.10131 16.3901 7.24616C16.2418 7.39102 16.0416 7.4714 15.8336 7.46964H14.7782C14.6751 7.47063 14.5729 7.45144 14.4773 7.41316C14.3817 7.37487 14.2947 7.31824 14.2211 7.2465C14.1475 7.17476 14.0889 7.08932 14.0485 6.99505C14.0082 6.90078 13.9869 6.79953 13.9859 6.69708Z" fill="white"/>
</svg>
