<svg width="59" height="59" viewBox="0 0 59 59" fill="none" xmlns="http://www.w3.org/2000/svg">
<circle cx="29.5" cy="29.5" r="28.5" stroke="#10ABCF" stroke-width="2"/>
<rect x="5" y="5" width="49" height="49" rx="24.5" fill="#10ABCF"/>
<path fill-rule="evenodd" clip-rule="evenodd" d="M27.3891 38H31.6109C34.5758 38 36.0588 38 37.1237 37.3058C37.5834 37.0066 37.9792 36.6202 38.2884 36.1687C39 35.1298 39 33.682 39 30.7882C39 27.8945 39 26.4466 38.2884 25.4078C37.9792 24.9563 37.5834 24.5699 37.1237 24.2706C36.4397 23.8239 35.5828 23.6643 34.2709 23.6076C33.6448 23.6076 33.1062 23.1449 32.9836 22.5452C32.89 22.1059 32.6467 21.7122 32.2948 21.4307C31.9429 21.1491 31.504 20.997 31.0523 21H27.9477C27.0091 21 26.2007 21.647 26.0164 22.5452C25.8938 23.1449 25.3552 23.6076 24.7291 23.6076C23.4181 23.6643 22.5612 23.8249 21.8762 24.2706C21.417 24.57 21.0215 24.9564 20.7125 25.4078C20 26.4466 20 27.8935 20 30.7882C20 33.683 20 35.1289 20.7116 36.1687C21.0194 36.6183 21.4145 37.0046 21.8762 37.3058C22.9412 38 24.4241 38 27.3891 38ZM29.5 26.9245C27.314 26.9245 25.5413 28.6538 25.5413 30.7873C25.5413 32.9208 27.315 34.6529 29.5 34.6529C31.685 34.6529 33.4586 32.9227 33.4586 30.7892C33.4586 28.6557 31.685 26.9245 29.5 26.9245ZM29.5 28.4696C28.189 28.4696 27.125 29.5076 27.125 30.7882C27.125 32.068 28.189 33.1059 29.5 33.1059C30.811 33.1059 31.875 32.068 31.875 30.7882C31.875 29.5085 30.811 28.4696 29.5 28.4696ZM33.9859 27.6971C33.9859 27.2702 34.3403 26.9245 34.7782 26.9245H35.8327C36.2697 26.9245 36.625 27.2702 36.625 27.6971C36.623 27.9038 36.5385 28.1013 36.3901 28.2462C36.2418 28.391 36.0416 28.4714 35.8336 28.4696H34.7782C34.6751 28.4706 34.5729 28.4514 34.4773 28.4132C34.3817 28.3749 34.2947 28.3182 34.2211 28.2465C34.1475 28.1748 34.0889 28.0893 34.0485 27.995C34.0082 27.9008 33.9869 27.7995 33.9859 27.6971Z" fill="white"/>
</svg>
