<svg width="326" height="161" viewBox="0 0 326 161" fill="none" xmlns="http://www.w3.org/2000/svg">
<path d="M277.475 56.9398H270.473V58.6777H277.475V56.9398Z" fill="#3D080B"/>
<path d="M277.475 62.8583H270.473V64.5961H277.475V62.8583Z" fill="#3D080B"/>
<path d="M271.794 18.7356H58.4375V157.244H271.794V18.7356Z" fill="#FFD159"/>
<path d="M271.794 91.06H258.484V99.6239H271.794V91.06Z" fill="#FFA741"/>
<path d="M259.15 42.0135H245.84V50.5773H259.15V42.0135Z" fill="#FFA741"/>
<path d="M214.244 94.0723H200.934V102.636H214.244V94.0723Z" fill="#FFA741"/>
<path d="M214.244 105.301H200.934V113.865H214.244V105.301Z" fill="#FFA741"/>
<path d="M271.795 42.0135H262.738V50.5773H271.795V42.0135Z" fill="#FFA741"/>
<path d="M259.15 53.5317H245.84V62.0955H259.15V53.5317Z" fill="#FFA741"/>
<path d="M203.849 55.704H190.539V64.2679H203.849V55.704Z" fill="#FFA741"/>
<path d="M203.849 66.2664H190.539V74.8303H203.849V66.2664Z" fill="#FFA741"/>
<path d="M94.0991 42.9403H80.7891V51.5042H94.0991V42.9403Z" fill="#FFA741"/>
<path d="M119.845 42.9403H97.4883V51.5042H119.845V42.9403Z" fill="#FFA741"/>
<path d="M158.525 133.493H136.168V142.057H158.525V133.493Z" fill="#FFA741"/>
<path d="M167.689 144.355H145.332V152.919H167.689V144.355Z" fill="#FFA741"/>
<path d="M142.209 144.355H119.852V152.919H142.209V144.355Z" fill="#FFA741"/>
<path d="M151.369 33.9323H129.012V42.4962H151.369V33.9323Z" fill="#FFA741"/>
<path d="M176.298 33.9323H153.941V42.4962H176.298V33.9323Z" fill="#FFA741"/>
<path d="M87.7789 85.8078H65.4219V94.3716H87.7789V85.8078Z" fill="#FFA741"/>
<path d="M83.1891 96.7371H60.832V105.301H83.1891V96.7371Z" fill="#FFA741"/>
<path d="M271.794 102.009H258.484V110.572H271.794V102.009Z" fill="#FFA741"/>
<path d="M233.043 75.9888C221.411 75.9888 211.949 85.4602 211.949 97.104V147.589C211.949 149.346 213.367 150.766 215.122 150.766H250.953C252.709 150.766 254.127 149.346 254.127 147.589V97.104C254.127 85.4602 244.665 75.9888 233.033 75.9888H233.043Z" fill="#FFA741"/>
<path d="M250.954 147.579V97.0943C250.954 87.2271 242.891 79.1556 233.034 79.1556C223.176 79.1556 215.113 87.2271 215.113 97.0943V147.579H250.944H250.954Z" fill="#10ABCF"/>
<g opacity="0.2">
<path d="M215.121 142.839L250.952 106.971V98.3494L215.121 134.217V142.839Z" fill="white"/>
<path d="M242.571 81.9555L215.305 109.25V130.635L250.827 95.0765C250.2 89.5635 247.046 84.8037 242.571 81.9555Z" fill="white"/>
<path d="M250.952 122.062V118.422L221.824 147.579H225.46L250.952 122.062Z" fill="white"/>
</g>
<path d="M233.041 83.4037C240.584 83.4037 246.728 89.5442 246.728 97.104V143.351H219.365V97.104C219.365 89.5539 225.499 83.4037 233.051 83.4037M233.041 79.1653C223.184 79.1653 215.121 87.2367 215.121 97.104V147.589H250.952V97.104C250.952 87.2367 242.889 79.1653 233.032 79.1653H233.041Z" fill="#68231A"/>
<path d="M233.041 79.1653C223.184 79.1653 215.121 87.2367 215.121 97.104V147.589H250.952V97.104C250.952 87.2367 242.889 79.1653 233.032 79.1653H233.041ZM249.901 146.527H216.182V97.104C216.182 87.7967 223.744 80.2273 233.041 80.2273C242.339 80.2273 249.901 87.7967 249.901 97.104V146.527Z" fill="#47101A"/>
<path d="M235.869 82.0617H230.207V145.591H235.869V82.0617Z" fill="#68231A"/>
<path d="M233.879 80.2273H232.191V142.839H233.879V80.2273Z" fill="#47101A"/>
<path d="M242.252 112.668H241.943C241.075 112.668 240.371 113.372 240.371 114.241V122.052C240.371 122.921 241.075 123.626 241.943 123.626H242.252C243.12 123.626 243.824 122.921 243.824 122.052V114.241C243.824 113.372 243.12 112.668 242.252 112.668Z" fill="#68231A"/>
<path d="M242.136 113.942H242.049C241.804 113.942 241.605 114.141 241.605 114.386V119.329C241.605 119.575 241.804 119.774 242.049 119.774H242.136C242.381 119.774 242.58 119.575 242.58 119.329V114.386C242.58 114.141 242.381 113.942 242.136 113.942Z" fill="#68231A"/>
<path d="M240.949 114.521C240.949 115.149 241.46 115.67 242.097 115.67C242.734 115.67 243.245 115.159 243.245 114.521C243.245 113.884 242.734 113.372 242.097 113.372C241.46 113.372 240.949 113.884 240.949 114.521Z" fill="#FFD159"/>
<path d="M254.174 142.839H211.91V148.641H254.174V142.839Z" fill="#B1C9FF"/>
<path d="M258.485 146.826H207.598V153.816H258.485V146.826Z" fill="#DDEEFF"/>
<path d="M261.733 151.084H204.336V157.244H261.733V151.084Z" fill="white"/>
<path d="M69.1445 49.9208V137.77H198.059V49.9208H69.1445ZM80.786 126.262V61.439H186.408V126.262H80.786Z" fill="#FFA741"/>
<path d="M70.7266 51.5042V137.239H196.458V51.5042H70.7266ZM188 128.762H79.1948V59.9811H188V128.762Z" fill="#68231A"/>
<path d="M192.224 55.7427H74.9609V133.001H192.224V55.7427Z" fill="#10ABCF"/>
<path style="mix-blend-mode:multiply" d="M66.8945 137.587L85.3164 156.037L203.429 155.043L219.545 151.084L200.227 130.635L83.6189 134.208L66.8945 137.587Z" fill="url(#paint0_linear_3131_15591)"/>
<path d="M200.236 130.635H66.8945V137.77H200.236V130.635Z" fill="#DDEEFF"/>
<path d="M200.236 130.635H66.8945V131.388H200.236V130.635Z" fill="white"/>
<path style="mix-blend-mode:multiply" d="M216.637 73.16L271.324 127.903L271.14 77.7653L243.681 50.2683L232.127 55.7426L216.637 73.16Z" fill="url(#paint1_linear_3131_15591)"/>
<path d="M216.9 63.7272C216.9 63.7272 216.861 63.7658 216.851 63.7851C216.543 64.2196 216.061 64.5189 215.405 64.5865C215.308 64.6347 215.221 64.6637 215.125 64.683V70.8331C215.125 72.2428 216.273 73.3917 217.681 73.3917C219.089 73.3917 220.237 72.2428 220.237 70.8331V63.8141C219.118 63.8237 218.009 63.8044 216.89 63.7368L216.9 63.7272Z" fill="white"/>
<path d="M222.023 63.7272C222.023 63.7272 221.984 63.7658 221.975 63.7851C221.627 64.2679 221.078 64.6154 220.296 64.6154C220.287 64.6154 220.267 64.6154 220.258 64.6154V70.8331C220.258 72.2428 221.406 73.3917 222.814 73.3917C224.222 73.3917 225.37 72.2428 225.37 70.8331V63.8141C224.251 63.8237 223.142 63.8044 222.023 63.7368V63.7272Z" fill="#4C160B"/>
<path d="M227.136 63.7272C227.136 63.7272 227.098 63.7658 227.088 63.7851C226.741 64.2679 226.191 64.6154 225.41 64.6154C225.4 64.6154 225.381 64.6154 225.371 64.6154V70.8331C225.371 72.2428 226.519 73.3917 227.927 73.3917C229.335 73.3917 230.483 72.2428 230.483 70.8331V63.8141C229.364 63.8237 228.255 63.8044 227.136 63.7368V63.7272Z" fill="white"/>
<path d="M232.257 63.7272C232.257 63.7272 232.219 63.7658 232.209 63.7851C231.862 64.2679 231.312 64.6154 230.531 64.6154C230.521 64.6154 230.502 64.6154 230.492 64.6154V70.8331C230.492 72.2428 231.64 73.3917 233.048 73.3917C234.456 73.3917 235.604 72.2428 235.604 70.8331V63.8141C234.485 63.8237 233.376 63.8044 232.257 63.7368V63.7272Z" fill="#4C160B"/>
<path d="M237.374 63.7272C237.374 63.7272 237.336 63.7658 237.326 63.7851C236.979 64.2679 236.429 64.6154 235.648 64.6154C235.638 64.6154 235.619 64.6154 235.609 64.6154V70.8331C235.609 72.2428 236.757 73.3917 238.165 73.3917C239.573 73.3917 240.721 72.2428 240.721 70.8331V63.8141C239.602 63.8237 238.493 63.8044 237.374 63.7368V63.7272Z" fill="white"/>
<path d="M250.126 63.8044C249.287 63.8044 248.448 63.7755 247.609 63.7272C247.589 63.7465 247.57 63.7658 247.561 63.7851C247.213 64.2679 246.664 64.6154 245.882 64.6154C245.873 64.6154 245.853 64.6154 245.844 64.6154V70.8331C245.844 72.2428 246.992 73.3917 248.4 73.3917C249.808 73.3917 250.956 72.2428 250.956 70.8331V64.6637C250.618 64.4416 250.338 64.152 250.126 63.8141V63.8044Z" fill="white"/>
<path d="M245.09 63.8044C244.222 63.8044 243.354 63.7851 242.496 63.7272C242.476 63.7465 242.457 63.7658 242.447 63.7851C242.1 64.2679 241.55 64.6154 240.769 64.6154C240.759 64.6154 240.74 64.6154 240.73 64.6154V70.8331C240.73 72.2428 241.878 73.3917 243.286 73.3917C244.695 73.3917 245.842 72.2428 245.842 70.8331V64.7216C245.514 64.4899 245.264 64.181 245.09 63.8141V63.8044Z" fill="#4C160B"/>
<path d="M250.954 64.712C250.954 54.8447 242.891 46.7733 233.034 46.7733C223.176 46.7733 215.113 54.8447 215.113 64.712H250.944H250.954Z" fill="#68231A"/>
<path d="M233.043 46.9953C242.823 46.9953 250.829 54.9509 250.944 64.712H250.954C250.954 54.8447 242.891 46.7733 233.034 46.7733C223.176 46.7733 215.113 54.8447 215.113 64.712H215.123C215.239 54.9509 223.244 46.9953 233.024 46.9953H233.043Z" fill="#68231A"/>
<path d="M215.916 59.4791C215.405 61.1397 215.125 62.8969 215.125 64.712H250.956C250.956 62.8872 250.676 61.13 250.165 59.4791H215.906H215.916Z" fill="#862A1A"/>
<path style="mix-blend-mode:multiply" d="M58.4375 37.6012L113.124 92.3538L214.966 42.2066L85.482 14.7096L73.9273 20.1935L58.4375 37.6012Z" fill="url(#paint2_linear_3131_15591)"/>
<path d="M54.8412 20.9176C54.8412 20.9176 54.7736 20.9852 54.7447 21.0142C54.1949 21.7866 55.5742 22.4431 54.4168 22.559C56.7026 22.8969 51.8319 24.5672 51.668 24.6058V33.6331C51.668 36.153 53.732 38.2191 56.2493 38.2191C58.7667 38.2191 60.8307 36.153 60.8307 33.6331V21.0721C58.8342 21.0914 56.8377 21.0528 54.8412 20.9273V20.9176Z" fill="white"/>
<path d="M64.0052 20.9176C64.0052 20.9176 63.9377 20.9852 63.9088 21.0142C63.2915 21.8831 62.2981 22.4914 60.8995 22.4914C60.8706 22.4914 60.8513 22.4914 60.832 22.4914V33.6234C60.832 36.1433 62.8961 38.2095 65.4134 38.2095C67.9307 38.2095 69.9948 36.1433 69.9948 33.6234V21.0625C67.9982 21.0818 66.0017 21.0432 64.0052 20.9176Z" fill="#10ABCF"/>
<path d="M73.1693 20.9176C73.1693 20.9176 73.1018 20.9852 73.0728 21.0142C72.4556 21.8831 71.4621 22.4914 70.0636 22.4914C70.0347 22.4914 70.0154 22.4914 69.9961 22.4914V33.6234C69.9961 36.1433 72.0601 38.2095 74.5775 38.2095C77.0948 38.2095 79.1588 36.1433 79.1588 33.6234V21.0625C77.1623 21.0818 75.1658 21.0432 73.1693 20.9176Z" fill="white"/>
<path d="M82.3451 20.9176C82.3451 20.9176 82.2776 20.9852 82.2486 21.0142C81.6313 21.8831 80.6379 22.4914 79.2394 22.4914C79.2105 22.4914 79.1912 22.4914 79.1719 22.4914V33.6234C79.1719 36.1433 81.2359 38.2095 83.7532 38.2095C86.2706 38.2095 88.3346 36.1433 88.3346 33.6234V21.0625C86.3381 21.0818 84.3416 21.0432 82.3451 20.9176Z" fill="#10ABCF"/>
<path d="M91.5013 20.9176C91.5013 20.9176 91.4338 20.9852 91.4049 21.0142C90.7876 21.8831 89.7942 22.4914 88.3956 22.4914C88.3667 22.4914 88.3474 22.4914 88.3281 22.4914V33.6234C88.3281 36.1433 90.3921 38.2095 92.9095 38.2095C95.4268 38.2095 97.4908 36.1433 97.4908 33.6234V21.0625C95.4943 21.0818 93.4978 21.0432 91.5013 20.9176Z" fill="white"/>
<path d="M105.314 21.0528C103.761 21.0528 102.218 21.0142 100.665 20.9176C100.636 20.9563 100.598 20.9852 100.569 21.0142C99.9516 21.8831 98.9582 22.4914 97.5597 22.4914C97.5308 22.4914 97.5115 22.4914 97.4922 22.4914V33.6234C97.4922 36.1433 99.5562 38.2095 102.074 38.2095C104.591 38.2095 106.655 36.1433 106.655 33.6234V22.6748C106.076 22.2693 105.623 21.6997 105.314 21.0528Z" fill="#10ABCF"/>
<path d="M109.279 20.9176C109.279 20.9176 109.211 20.9852 109.182 21.0142C108.632 21.7866 107.764 22.3273 106.597 22.4431C106.433 22.5204 106.269 22.5783 106.105 22.6169V33.6234C106.105 36.1433 108.169 38.2095 110.687 38.2095C113.204 38.2095 115.268 36.1433 115.268 33.6234V21.0625C113.272 21.0818 111.275 21.0432 109.279 20.9176Z" fill="white"/>
<path d="M118.443 20.9176C118.443 20.9176 118.375 20.9852 118.346 21.0142C117.729 21.8831 116.736 22.4914 115.337 22.4914C115.308 22.4914 115.289 22.4914 115.27 22.4914V33.6234C115.27 36.1433 117.334 38.2095 119.851 38.2095C122.368 38.2095 124.432 36.1433 124.432 33.6234V21.0625C122.436 21.0818 120.439 21.0432 118.443 20.9176Z" fill="#10ABCF"/>
<path d="M127.607 20.9176C127.607 20.9176 127.539 20.9852 127.51 21.0142C126.893 21.8831 125.9 22.4914 124.501 22.4914C124.472 22.4914 124.453 22.4914 124.434 22.4914V33.6234C124.434 36.1433 126.498 38.2095 129.015 38.2095C131.532 38.2095 133.596 36.1433 133.596 33.6234V21.0625C131.6 21.0818 129.603 21.0432 127.607 20.9176Z" fill="white"/>
<path d="M136.771 20.9176C136.771 20.9176 136.703 20.9852 136.674 21.0142C136.057 21.8831 135.064 22.4914 133.665 22.4914C133.636 22.4914 133.617 22.4914 133.598 22.4914V33.6234C133.598 36.1433 135.662 38.2095 138.179 38.2095C140.696 38.2095 142.76 36.1433 142.76 33.6234V21.0625C140.764 21.0818 138.767 21.0432 136.771 20.9176Z" fill="#10ABCF"/>
<path d="M145.927 20.9176C145.927 20.9176 145.86 20.9852 145.831 21.0142C145.213 21.8831 144.22 22.4914 142.821 22.4914C142.792 22.4914 142.773 22.4914 142.754 22.4914V33.6234C142.754 36.1433 144.818 38.2095 147.335 38.2095C149.853 38.2095 151.917 36.1433 151.917 33.6234V21.0625C149.92 21.0818 147.924 21.0432 145.927 20.9176Z" fill="white"/>
<path d="M159.752 21.0528C158.199 21.0528 156.656 21.0142 155.103 20.9176C155.074 20.9563 155.035 20.9852 155.006 21.0142C154.389 21.8831 153.396 22.4914 151.997 22.4914C151.968 22.4914 151.949 22.4914 151.93 22.4914V33.6234C151.93 36.1433 153.994 38.2095 156.511 38.2095C159.028 38.2095 161.092 36.1433 161.092 33.6234V22.6748C160.514 22.2693 160.06 21.6997 159.752 21.0528Z" fill="#10ABCF"/>
<path d="M163.708 20.9176C163.708 20.9176 163.641 20.9852 163.612 21.0142C163.062 21.7866 162.194 22.3272 161.027 22.4431C160.863 22.5203 160.699 22.5783 160.535 22.6169V33.6234C160.535 36.1433 162.599 38.2094 165.117 38.2094C167.634 38.2094 169.698 36.1433 169.698 33.6234V21.0625C167.701 21.0818 165.705 21.0431 163.708 20.9176Z" fill="white"/>
<path d="M172.872 20.9176C172.872 20.9176 172.805 20.9852 172.776 21.0142C172.159 21.8831 171.165 22.4914 169.767 22.4914C169.738 22.4914 169.719 22.4914 169.699 22.4914V33.6234C169.699 36.1433 171.763 38.2094 174.281 38.2094C176.798 38.2094 178.862 36.1433 178.862 33.6234V21.0625C176.865 21.0818 174.869 21.0431 172.872 20.9176Z" fill="#10ABCF"/>
<path d="M182.044 20.9176C182.044 20.9176 181.977 20.9852 181.948 21.0142C181.331 21.8831 180.337 22.4914 178.939 22.4914C178.91 22.4914 178.89 22.4914 178.871 22.4914V33.6234C178.871 36.1433 180.935 38.2094 183.452 38.2094C185.97 38.2094 188.034 36.1433 188.034 33.6234V21.0625C186.037 21.0818 184.041 21.0431 182.044 20.9176Z" fill="white"/>
<path d="M191.208 20.9176C191.208 20.9176 191.141 20.9852 191.112 21.0142C190.495 21.8831 189.501 22.4914 188.103 22.4914C188.074 22.4914 188.054 22.4914 188.035 22.4914V33.6234C188.035 36.1433 190.099 38.2094 192.617 38.2094C195.134 38.2094 197.198 36.1433 197.198 33.6234V21.0625C195.201 21.0818 193.205 21.0431 191.208 20.9176Z" fill="#10ABCF"/>
<path d="M200.369 20.9176C200.369 20.9176 200.301 20.9852 200.272 21.0142C199.655 21.8831 198.661 22.4914 197.263 22.4914C197.234 22.4914 197.215 22.4914 197.195 22.4914V33.6234C197.195 36.1433 199.259 38.2094 201.777 38.2094C204.294 38.2094 206.358 36.1433 206.358 33.6234V21.0625C204.362 21.0818 202.365 21.0431 200.369 20.9176Z" fill="white"/>
<path d="M214.181 21.0528C212.629 21.0528 211.085 21.0142 209.533 20.9176C209.504 20.9563 209.465 20.9852 209.436 21.0142C208.819 21.8831 207.825 22.4914 206.427 22.4914C206.398 22.4914 206.379 22.4914 206.359 22.4914V33.6234C206.359 36.1433 208.423 38.2094 210.941 38.2094C213.458 38.2094 215.522 36.1433 215.522 33.6234V22.6748C214.943 22.2693 214.49 21.6997 214.181 21.0528Z" fill="#10ABCF"/>
<path d="M218.142 20.9176C218.142 20.9176 218.074 20.9852 218.045 21.0142C217.496 21.7866 216.628 22.3273 215.461 22.4431C215.297 22.5204 215.133 22.5783 214.969 22.6169V33.6234C214.969 36.1433 217.033 38.2095 219.55 38.2095C222.067 38.2095 224.131 36.1433 224.131 33.6234V21.0625C222.135 21.0818 220.138 21.0432 218.142 20.9176Z" fill="white"/>
<path d="M227.306 20.9176C227.306 20.9176 227.238 20.9852 227.21 21.0142C226.592 21.8831 225.599 22.4914 224.2 22.4914C224.171 22.4914 224.152 22.4914 224.133 22.4914V33.6234C224.133 36.1433 226.197 38.2095 228.714 38.2095C231.232 38.2095 233.296 36.1433 233.296 33.6234V21.0625C231.299 21.0818 229.303 21.0432 227.306 20.9176Z" fill="#10ABCF"/>
<path d="M236.466 20.9176C236.466 20.9176 236.399 20.9852 236.37 21.0142C235.752 21.8831 234.759 22.4914 233.36 22.4914C233.332 22.4914 233.312 22.4914 233.293 22.4914V33.6234C233.293 36.1433 235.357 38.2095 237.874 38.2095C240.392 38.2095 242.456 36.1433 242.456 33.6234V21.0625C240.459 21.0818 238.463 21.0432 236.466 20.9176Z" fill="white"/>
<path d="M245.63 20.9176C245.63 20.9176 245.563 20.9852 245.534 21.0142C244.917 21.8831 243.923 22.4914 242.525 22.4914C242.496 22.4914 242.476 22.4914 242.457 22.4914V33.6234C242.457 36.1433 244.521 38.2095 247.038 38.2095C249.556 38.2095 251.62 36.1433 251.62 33.6234V21.0625C249.623 21.0818 247.627 21.0432 245.63 20.9176Z" fill="#10ABCF"/>
<path d="M254.802 20.9176C254.802 20.9176 254.735 20.9852 254.706 21.0142C254.088 21.8831 253.095 22.4914 251.696 22.4914C251.667 22.4914 251.648 22.4914 251.629 22.4914V33.6234C251.629 36.1433 253.693 38.2095 256.21 38.2095C258.728 38.2095 260.792 36.1433 260.792 33.6234V21.0625C258.795 21.0818 256.799 21.0432 254.802 20.9176Z" fill="white"/>
<path d="M268.615 21.0528C267.062 21.0528 265.519 21.0142 263.966 20.9176C263.937 20.9563 263.899 20.9852 263.87 21.0142C263.252 21.8831 262.259 22.4914 260.86 22.4914C260.832 22.4914 260.812 22.4914 260.793 22.4914V33.6234C260.793 36.1433 262.857 38.2095 265.374 38.2095C267.892 38.2095 269.956 36.1433 269.956 33.6234V22.6748C269.377 22.2693 268.924 21.6997 268.615 21.0528Z" fill="#10ABCF"/>
<path d="M272.564 20.9176C272.564 20.9176 272.496 20.9852 272.467 21.0142C271.918 21.7866 271.05 22.3273 269.883 22.4431C269.719 22.5203 269.555 22.5783 269.391 22.6169V33.6234C269.391 36.1433 271.455 38.2095 273.972 38.2095C276.489 38.2095 278.553 36.1433 278.553 33.6234V24.5961C276.557 24.6154 274.56 21.0335 272.564 20.908V20.9176Z" fill="white"/>
<path d="M81.3359 0.941772H247.451C255.707 0.941772 263.481 4.79405 268.487 11.369L278.556 24.6058H51.668L59.7119 12.5276C64.5344 5.28645 72.6458 0.941772 81.3359 0.941772Z" fill="#10ABCF"/>
<path d="M107.699 72.2621H84.4548C82.8055 72.2621 81.4648 70.9104 81.4648 69.2691C81.4648 67.6181 82.8151 66.2761 84.4548 66.2761H107.699C109.348 66.2761 110.689 67.6277 110.689 69.2691C110.689 70.92 109.339 72.2621 107.699 72.2621Z" fill="#FFD159"/>
<path d="M85.6532 70.9973C85.3445 70.9973 85.0938 70.7463 85.0938 70.4373V68.0719C85.0938 67.7629 85.3445 67.5119 85.6532 67.5119C85.9618 67.5119 86.2029 67.7629 86.2029 68.0719V70.4373C86.2029 70.7463 85.9522 70.9973 85.6532 70.9973Z" fill="#FF9E42"/>
<path d="M88.3368 70.9973C88.0281 70.9973 87.7773 70.7463 87.7773 70.4373V68.0719C87.7773 67.7629 88.0281 67.5119 88.3368 67.5119C88.6454 67.5119 88.8962 67.7629 88.8962 68.0719V70.4373C88.8962 70.7463 88.6454 70.9973 88.3368 70.9973Z" fill="#FF9E42"/>
<path d="M91.0086 70.9973C90.7 70.9973 90.4492 70.7463 90.4492 70.4373V68.0719C90.4492 67.7629 90.7 67.5119 91.0086 67.5119C91.3173 67.5119 91.568 67.7629 91.568 68.0719V70.4373C91.568 70.7463 91.3173 70.9973 91.0086 70.9973Z" fill="#FF9E42"/>
<path d="M93.6865 70.9973C93.3778 70.9973 93.1367 70.7463 93.1367 70.4373V68.0719C93.1367 67.7629 93.3875 67.5119 93.6865 67.5119C93.9951 67.5119 94.2459 67.7629 94.2459 68.0719V70.4373C94.2459 70.7463 93.9951 70.9973 93.6865 70.9973Z" fill="#FF9E42"/>
<path d="M96.3602 70.9973C96.0516 70.9973 95.8008 70.7463 95.8008 70.4373V68.0719C95.8008 67.7629 96.0516 67.5119 96.3602 67.5119C96.6688 67.5119 96.91 67.7629 96.91 68.0719V70.4373C96.91 70.7463 96.6592 70.9973 96.3602 70.9973Z" fill="#FF9E42"/>
<path d="M99.0399 70.9973C98.7312 70.9973 98.4805 70.7463 98.4805 70.4373V68.0719C98.4805 67.7629 98.7312 67.5119 99.0399 67.5119C99.3485 67.5119 99.5993 67.7629 99.5993 68.0719V70.4373C99.5993 70.7463 99.3485 70.9973 99.0399 70.9973Z" fill="#FF9E42"/>
<path d="M101.712 70.9973C101.403 70.9973 101.152 70.7463 101.152 70.4373V68.0719C101.152 67.7629 101.403 67.5119 101.712 67.5119C102.02 67.5119 102.271 67.7629 102.271 68.0719V70.4373C102.271 70.7463 102.02 70.9973 101.712 70.9973Z" fill="#FF9E42"/>
<path d="M104.394 70.9973C104.085 70.9973 103.844 70.7463 103.844 70.4373V68.0719C103.844 67.7629 104.095 67.5119 104.394 67.5119C104.702 67.5119 104.953 67.7629 104.953 68.0719V70.4373C104.953 70.7463 104.702 70.9973 104.394 70.9973Z" fill="#FF9E42"/>
<path d="M107.065 70.9973C106.757 70.9973 106.516 70.7463 106.516 70.4373V68.0719C106.516 67.7629 106.766 67.5119 107.065 67.5119C107.374 67.5119 107.625 67.7629 107.625 68.0719V70.4373C107.625 70.7463 107.374 70.9973 107.065 70.9973Z" fill="#FF9E42"/>
<path d="M122.23 72.0786L100.79 63.0996C99.2754 62.4624 98.5521 60.6956 99.179 59.1798C99.8156 57.6639 101.581 56.9398 103.095 57.5674L124.536 66.5464C126.05 67.1836 126.773 68.9505 126.146 70.4663C125.51 71.9821 123.745 72.7062 122.23 72.0786Z" fill="#FFD159"/>
<path d="M102.38 62.4045C102.1 62.2886 101.965 61.9603 102.081 61.6803L102.997 59.4984C103.113 59.2184 103.44 59.0832 103.72 59.1991C104 59.3149 104.135 59.6432 104.019 59.9232L103.103 62.1052C102.987 62.3852 102.659 62.5203 102.38 62.4045Z" fill="#FF9E42"/>
<path d="M104.848 63.4375C104.569 63.3217 104.434 62.9934 104.549 62.7134L105.466 60.5314C105.581 60.2514 105.909 60.1163 106.189 60.2321C106.469 60.348 106.604 60.6763 106.488 60.9562L105.572 63.1382C105.456 63.4182 105.128 63.5534 104.848 63.4375Z" fill="#FF9E42"/>
<path d="M107.317 64.4706C107.037 64.3548 106.902 64.0265 107.018 63.7465L107.934 61.5645C108.05 61.2845 108.378 61.1494 108.658 61.2652C108.937 61.3811 109.072 61.7093 108.957 61.9893L108.04 64.1713C107.925 64.4513 107.597 64.5865 107.317 64.4706Z" fill="#FF9E42"/>
<path d="M109.786 65.5037C109.506 65.3878 109.371 65.0595 109.487 64.7795L110.403 62.5976C110.519 62.3176 110.847 62.1824 111.126 62.2983C111.406 62.4141 111.541 62.7424 111.425 63.0224L110.509 65.2044C110.393 65.4843 110.065 65.6195 109.786 65.5037Z" fill="#FF9E42"/>
<path d="M112.255 66.5367C111.975 66.4209 111.84 66.0926 111.956 65.8126L112.872 63.6306C112.988 63.3506 113.315 63.2155 113.595 63.3313C113.875 63.4472 114.01 63.7754 113.894 64.0554L112.978 66.2374C112.862 66.5174 112.534 66.6526 112.255 66.5367Z" fill="#FF9E42"/>
<path d="M114.727 67.5698C114.447 67.454 114.312 67.1257 114.428 66.8457L115.344 64.6637C115.46 64.3837 115.788 64.2485 116.068 64.3644C116.348 64.4803 116.483 64.8085 116.367 65.0885L115.451 67.2705C115.335 67.5505 115.007 67.6857 114.727 67.5698Z" fill="#FF9E42"/>
<path d="M117.192 68.6029C116.912 68.487 116.777 68.1588 116.893 67.8788L117.809 65.6968C117.925 65.4168 118.253 65.2816 118.533 65.3975C118.812 65.5133 118.947 65.8416 118.832 66.1216L117.915 68.3036C117.8 68.5836 117.472 68.7187 117.192 68.6029Z" fill="#FF9E42"/>
<path d="M119.653 69.6359C119.373 69.5201 119.238 69.1918 119.354 68.9118L120.27 66.7298C120.386 66.4498 120.714 66.3147 120.994 66.4305C121.273 66.5464 121.408 66.8747 121.293 67.1547L120.376 69.3366C120.261 69.6166 119.933 69.7518 119.653 69.6359Z" fill="#FF9E42"/>
<path d="M122.122 70.669C121.842 70.5532 121.707 70.2249 121.823 69.9449L122.739 67.7629C122.855 67.4829 123.183 67.3477 123.462 67.4636C123.742 67.5795 123.877 67.9077 123.761 68.1877L122.845 70.3697C122.729 70.6497 122.401 70.7849 122.122 70.669Z" fill="#FF9E42"/>
<path d="M130.785 89.718C129.859 86.0878 126.59 83.4037 122.674 83.4037C118.758 83.4037 115.488 86.0878 114.562 89.718H130.785Z" fill="#FFEF8D"/>
<path d="M132.222 90.4131C132.222 92.3634 130.631 93.9661 128.673 93.9661H116.53C114.582 93.9661 112.98 92.3731 112.98 90.4131" fill="#FFD061"/>
<path d="M132.144 89.718H113.192C112.771 89.718 112.43 90.0595 112.43 90.4807V90.6738C112.43 91.0951 112.771 91.4366 113.192 91.4366H132.144C132.565 91.4366 132.906 91.0951 132.906 90.6738V90.4807C132.906 90.0595 132.565 89.718 132.144 89.718Z" fill="#FF9E42"/>
<path d="M122.671 87.6519C122.449 87.6519 122.266 87.4684 122.266 87.2464V84.7072C122.266 84.4851 122.449 84.3016 122.671 84.3016C122.893 84.3016 123.076 84.4851 123.076 84.7072V87.2464C123.076 87.4684 122.893 87.6519 122.671 87.6519Z" fill="#FFD061"/>
<path d="M120.26 87.8546C120.26 87.8546 120.212 87.8546 120.192 87.8546C119.97 87.816 119.816 87.6036 119.864 87.3815C120.269 85.0354 121.051 84.2437 121.147 84.1568C121.311 84.0023 121.571 84.0023 121.726 84.1761C121.88 84.3403 121.87 84.5913 121.716 84.7554C121.697 84.7747 121.031 85.4795 120.675 87.5264C120.636 87.7291 120.472 87.8643 120.269 87.8643L120.26 87.8546Z" fill="#FFD061"/>
<path d="M117.472 87.8546C117.414 87.8546 117.357 87.845 117.299 87.816C117.096 87.7195 117.009 87.4781 117.106 87.2753C118.061 85.2478 119.604 84.3789 119.671 84.3403C119.864 84.2341 120.115 84.3016 120.231 84.5044C120.337 84.7071 120.269 84.9485 120.067 85.0644C120.057 85.0644 118.688 85.8464 117.848 87.6229C117.781 87.7677 117.636 87.8546 117.482 87.8546H117.472Z" fill="#FFD061"/>
<path d="M124.984 87.8546C124.791 87.8546 124.618 87.7195 124.579 87.5167C124.213 85.4409 123.547 84.7458 123.537 84.7458C123.383 84.5913 123.373 84.3306 123.537 84.1665C123.692 84.0024 123.942 84.0024 124.106 84.1568C124.193 84.2437 124.974 85.0354 125.389 87.3815C125.428 87.6036 125.283 87.816 125.061 87.8546C125.042 87.8546 125.013 87.8546 124.994 87.8546H124.984Z" fill="#FFD061"/>
<path d="M127.771 87.8546C127.617 87.8546 127.472 87.7677 127.405 87.6229C126.566 85.8368 125.206 85.074 125.186 85.0644C124.984 84.9582 124.916 84.7072 125.022 84.5044C125.129 84.3113 125.379 84.2341 125.582 84.3403C125.649 84.3789 127.193 85.2478 128.147 87.2753C128.244 87.4781 128.147 87.7291 127.955 87.816C127.897 87.845 127.839 87.8546 127.781 87.8546H127.771Z" fill="#FFD061"/>
<path d="M164.555 89.718C163.629 86.0878 160.359 83.4038 156.443 83.4038C152.528 83.4038 149.258 86.0878 148.332 89.718H164.555Z" fill="#FFEF8D"/>
<path d="M165.992 90.4132C165.992 92.3635 164.4 93.9662 162.442 93.9662H150.299C148.351 93.9662 146.75 92.3731 146.75 90.4132" fill="#FFD061"/>
<path d="M165.925 89.718H146.973C146.552 89.718 146.211 90.0595 146.211 90.4808V90.6739C146.211 91.0951 146.552 91.4366 146.973 91.4366H165.925C166.346 91.4366 166.687 91.0951 166.687 90.6739V90.4808C166.687 90.0595 166.346 89.718 165.925 89.718Z" fill="#FF9E42"/>
<path d="M156.444 87.6519C156.222 87.6519 156.039 87.4685 156.039 87.2464V84.7072C156.039 84.4851 156.222 84.3017 156.444 84.3017C156.666 84.3017 156.849 84.4851 156.849 84.7072V87.2464C156.849 87.4685 156.666 87.6519 156.444 87.6519Z" fill="#FFD061"/>
<path d="M154.045 87.8547C154.045 87.8547 153.997 87.8547 153.977 87.8547C153.756 87.816 153.601 87.6036 153.649 87.3816C154.055 85.0354 154.836 84.2438 154.932 84.1569C155.096 84.0024 155.357 84.0024 155.511 84.1762C155.665 84.3403 155.656 84.5913 155.501 84.7555C155.482 84.7748 154.817 85.4796 154.46 87.5264C154.421 87.7291 154.257 87.8643 154.055 87.8643L154.045 87.8547Z" fill="#FFD061"/>
<path d="M151.246 87.8546C151.188 87.8546 151.13 87.845 151.072 87.816C150.87 87.7195 150.783 87.4781 150.879 87.2754C151.834 85.2478 153.377 84.3789 153.445 84.3403C153.638 84.2341 153.888 84.3017 154.004 84.5044C154.11 84.7072 154.043 84.9485 153.84 85.0644C153.831 85.0644 152.461 85.8464 151.622 87.6229C151.554 87.7678 151.41 87.8546 151.255 87.8546H151.246Z" fill="#FFD061"/>
<path d="M158.758 87.8547C158.565 87.8547 158.391 87.7195 158.352 87.5168C157.986 85.441 157.32 84.7458 157.311 84.7458C157.156 84.5913 157.147 84.3307 157.311 84.1665C157.465 84.0024 157.716 84.0024 157.88 84.1569C157.967 84.2438 158.748 85.0355 159.163 87.3816C159.201 87.6036 159.057 87.8161 158.835 87.8547C158.815 87.8547 158.786 87.8547 158.767 87.8547H158.758Z" fill="#FFD061"/>
<path d="M161.553 87.8547C161.398 87.8547 161.254 87.7678 161.186 87.623C160.347 85.8368 158.987 85.0741 158.968 85.0644C158.765 84.9582 158.698 84.7072 158.804 84.5044C158.91 84.3113 159.161 84.2341 159.363 84.3403C159.431 84.3789 160.974 85.2479 161.929 87.2754C162.025 87.4781 161.929 87.7292 161.736 87.8161C161.678 87.845 161.62 87.8547 161.562 87.8547H161.553Z" fill="#FFD061"/>
<path d="M159.078 80.3432C157.93 80.3528 157.004 81.4149 157.004 81.4149C157.004 81.4149 157.949 82.448 159.097 82.4286C160.245 82.4093 161.171 81.357 161.171 81.357C161.171 81.357 160.225 80.3239 159.078 80.3432Z" fill="#00A18F"/>
<path d="M159.529 82.3804C159.394 82.1004 159.086 81.5694 158.565 81.3473C157.948 81.0866 157.243 81.3473 157.031 81.4342C157.128 81.5307 158.025 82.448 159.105 82.4286C159.25 82.4286 159.385 82.4093 159.529 82.3804Z" fill="#008A7A"/>
<path d="M158.548 81.5694C157.873 81.1639 156.957 81.4535 156.957 81.4535C156.957 81.4535 157.14 82.3997 157.825 82.7955C158.51 83.1914 159.417 82.9114 159.417 82.9114C159.417 82.9114 159.233 81.9652 158.548 81.5694Z" fill="#00C49D"/>
<path d="M155.574 81.4342C154.89 82.1197 154.504 83.8768 155.044 84.3982C155.603 84.9389 157.359 84.5913 158.043 83.9155C158.728 83.2396 158.342 82.5059 157.658 81.83C156.973 81.1542 156.249 80.7583 155.574 81.4438V81.4342Z" fill="#FF3553"/>
<path d="M171.442 115.738C171.442 113.276 169.436 111.268 166.976 111.268H157.524C155.065 111.268 153.059 113.276 153.059 115.738" fill="#FFD061"/>
<path d="M158.028 113.952C158.346 113.952 158.616 113.691 158.616 113.363V111.268H157.526C157.526 111.268 157.478 111.268 157.449 111.268V113.363C157.449 113.681 157.71 113.952 158.038 113.952H158.028Z" fill="#FF9E42"/>
<path d="M161.594 113.952C161.913 113.952 162.183 113.691 162.183 113.363V111.268H161.016V113.363C161.016 113.681 161.276 113.952 161.604 113.952H161.594Z" fill="#FF9E42"/>
<path d="M165.165 113.952C165.483 113.952 165.753 113.691 165.753 113.363V111.268H164.586V113.363C164.586 113.681 164.846 113.952 165.174 113.952H165.165Z" fill="#FF9E42"/>
<path d="M101.308 109.632C102.279 105.446 99.6747 101.264 95.4923 100.293C91.31 99.322 87.1331 101.929 86.1629 106.115C85.1927 110.302 87.7967 114.483 91.979 115.454C96.1613 116.425 100.338 113.819 101.308 109.632Z" fill="#FFEF8D"/>
<path d="M97.898 104.413L90.2688 112.05C90.0759 112.243 89.7673 112.243 89.5744 112.05C89.3815 111.857 89.3815 111.548 89.5744 111.354L97.2035 103.718C97.3964 103.524 97.7051 103.524 97.898 103.718C98.0909 103.911 98.0909 104.22 97.898 104.413Z" fill="#FF9E42"/>
<path d="M90.2688 103.718L97.898 111.354C98.0909 111.548 98.0909 111.857 97.898 112.05C97.7051 112.243 97.3964 112.243 97.2035 112.05L89.5744 104.413C89.3815 104.22 89.3815 103.911 89.5744 103.718C89.7673 103.524 90.0759 103.524 90.2688 103.718Z" fill="#FF9E42"/>
<path d="M93.7402 102.211C93.7402 102.607 93.4219 102.916 93.0361 102.916C92.6503 102.916 92.332 102.598 92.332 102.211C92.332 101.825 92.6503 101.507 93.0361 101.507C93.4219 101.507 93.7402 101.825 93.7402 102.211Z" fill="#FFD061"/>
<path d="M95.3035 104.335C95.5272 104.335 95.7086 104.153 95.7086 103.93C95.7086 103.706 95.5272 103.524 95.3035 103.524C95.0798 103.524 94.8984 103.706 94.8984 103.93C94.8984 104.153 95.0798 104.335 95.3035 104.335Z" fill="#FFD061"/>
<path d="M93.5367 105.387C93.5367 105.609 93.3535 105.792 93.1316 105.792C92.9098 105.792 92.7266 105.609 92.7266 105.387C92.7266 105.166 92.9098 104.982 93.1316 104.982C93.3535 104.982 93.5367 105.166 93.5367 105.387Z" fill="#FFD061"/>
<path d="M94.3542 105.349C94.498 105.349 94.6146 105.232 94.6146 105.088C94.6146 104.944 94.498 104.828 94.3542 104.828C94.2103 104.828 94.0938 104.944 94.0938 105.088C94.0938 105.232 94.2103 105.349 94.3542 105.349Z" fill="#FFD061"/>
<path d="M88.9472 106.247C88.9472 106.643 88.6289 106.952 88.2431 106.952C87.8573 106.952 87.5391 106.633 87.5391 106.247C87.5391 105.861 87.8573 105.542 88.2431 105.542C88.6289 105.542 88.9472 105.861 88.9472 106.247Z" fill="#FFD061"/>
<path d="M90.9157 107.975C90.9157 108.197 90.7324 108.38 90.5106 108.38C90.2887 108.38 90.1055 108.197 90.1055 107.975C90.1055 107.753 90.2887 107.57 90.5106 107.57C90.7324 107.57 90.9157 107.753 90.9157 107.975Z" fill="#FFD061"/>
<path d="M88.7555 109.423C88.7555 109.645 88.5722 109.828 88.3504 109.828C88.1286 109.828 87.9453 109.645 87.9453 109.423C87.9453 109.201 88.1286 109.018 88.3504 109.018C88.5722 109.018 88.7555 109.201 88.7555 109.423Z" fill="#FFD061"/>
<path d="M89.5612 108.864C89.7059 108.864 89.8216 108.979 89.8216 109.124C89.8216 109.269 89.7059 109.384 89.5612 109.384C89.4165 109.384 89.3008 109.269 89.3008 109.124C89.3008 108.979 89.4165 108.864 89.5612 108.864Z" fill="#FFD061"/>
<path d="M98.7168 106.45C98.7168 106.836 98.3985 107.155 98.0127 107.155C97.6269 107.155 97.3086 106.836 97.3086 106.45C97.3086 106.064 97.6269 105.745 98.0127 105.745C98.3985 105.745 98.7168 106.064 98.7168 106.45Z" fill="#FFD061"/>
<path d="M100.685 108.178C100.685 108.399 100.502 108.583 100.28 108.583C100.058 108.583 99.875 108.399 99.875 108.178C99.875 107.956 100.058 107.773 100.28 107.773C100.502 107.773 100.685 107.956 100.685 108.178Z" fill="#FFD061"/>
<path d="M98.525 109.626C98.525 109.848 98.3418 110.031 98.1199 110.031C97.8981 110.031 97.7148 109.848 97.7148 109.626C97.7148 109.404 97.8981 109.221 98.1199 109.221C98.3418 109.221 98.525 109.404 98.525 109.626Z" fill="#FFD061"/>
<path d="M99.3307 109.066C99.4754 109.066 99.5911 109.182 99.5911 109.327C99.5911 109.471 99.4754 109.587 99.3307 109.587C99.186 109.587 99.0703 109.471 99.0703 109.327C99.0703 109.182 99.186 109.066 99.3307 109.066Z" fill="#FFD061"/>
<path d="M94.0761 110.881C94.0761 111.277 93.7578 111.586 93.372 111.586C92.9862 111.586 92.668 111.268 92.668 110.881C92.668 110.495 92.9862 110.177 93.372 110.177C93.7578 110.177 94.0761 110.495 94.0761 110.881Z" fill="#FFD061"/>
<path d="M96.0446 112.6C96.0446 112.821 95.8613 113.005 95.6395 113.005C95.4176 113.005 95.2344 112.821 95.2344 112.6C95.2344 112.378 95.4176 112.194 95.6395 112.194C95.8613 112.194 96.0446 112.378 96.0446 112.6Z" fill="#FFD061"/>
<path d="M93.8844 114.048C93.8844 114.27 93.7011 114.453 93.4793 114.453C93.2575 114.453 93.0742 114.27 93.0742 114.048C93.0742 113.826 93.2575 113.643 93.4793 113.643C93.7011 113.643 93.8844 113.826 93.8844 114.048Z" fill="#FFD061"/>
<path d="M94.6901 113.498C94.8348 113.498 94.9505 113.614 94.9505 113.758C94.9505 113.903 94.8348 114.019 94.6901 114.019C94.5454 114.019 94.4297 113.903 94.4297 113.758C94.4297 113.614 94.5454 113.498 94.6901 113.498Z" fill="#FFD061"/>
<path d="M99.0781 109.8C99.0781 110.891 99.3 111.934 99.6858 112.89C100.824 111.538 101.509 109.79 101.509 107.888C101.509 106.768 101.268 105.697 100.834 104.731C99.734 106.131 99.0781 107.888 99.0781 109.8Z" fill="#FFCA67"/>
<path d="M110.806 109.8C110.806 113.044 108.183 115.67 104.942 115.67C101.702 115.67 99.0781 113.044 99.0781 109.8C99.0781 106.556 101.702 103.93 104.942 103.93C108.183 103.93 110.806 106.556 110.806 109.8Z" fill="#FFEF8D"/>
<path d="M108.085 107.184L102.326 112.948C102.182 113.092 101.941 113.092 101.796 112.948C101.651 112.803 101.651 112.561 101.796 112.417L107.554 106.653C107.699 106.508 107.94 106.508 108.085 106.653C108.229 106.797 108.229 107.039 108.085 107.184Z" fill="#FF9E42"/>
<path d="M102.326 106.653L108.085 112.417C108.229 112.561 108.229 112.803 108.085 112.948C107.94 113.092 107.699 113.092 107.554 112.948L101.796 107.184C101.651 107.039 101.651 106.797 101.796 106.653C101.941 106.508 102.182 106.508 102.326 106.653Z" fill="#FF9E42"/>
<path d="M104.409 106.054C104.702 106.054 104.94 105.816 104.94 105.523C104.94 105.23 104.702 104.992 104.409 104.992C104.116 104.992 103.879 105.23 103.879 105.523C103.879 105.816 104.116 106.054 104.409 106.054Z" fill="#FFD061"/>
<path d="M106.117 107.125C106.288 107.125 106.426 106.987 106.426 106.816C106.426 106.646 106.288 106.508 106.117 106.508C105.947 106.508 105.809 106.646 105.809 106.816C105.809 106.987 105.947 107.125 106.117 107.125Z" fill="#FFD061"/>
<path d="M104.795 107.907C104.795 108.071 104.66 108.216 104.496 108.216C104.332 108.216 104.188 108.081 104.188 107.907C104.188 107.734 104.323 107.599 104.496 107.599C104.67 107.599 104.795 107.734 104.795 107.907Z" fill="#FFD061"/>
<path d="M105.406 107.898C105.518 107.898 105.608 107.807 105.608 107.695C105.608 107.583 105.518 107.493 105.406 107.493C105.294 107.493 105.203 107.583 105.203 107.695C105.203 107.807 105.294 107.898 105.406 107.898Z" fill="#FFD061"/>
<path d="M101.334 108.564C101.334 108.864 101.093 109.095 100.804 109.095C100.515 109.095 100.273 108.854 100.273 108.564C100.273 108.275 100.515 108.033 100.804 108.033C101.093 108.033 101.334 108.275 101.334 108.564Z" fill="#FFD061"/>
<path d="M102.809 109.867C102.809 110.031 102.674 110.176 102.5 110.176C102.326 110.176 102.191 110.041 102.191 109.867C102.191 109.694 102.326 109.568 102.5 109.568C102.674 109.568 102.809 109.703 102.809 109.867Z" fill="#FFD061"/>
<path d="M101.18 110.958C101.18 111.122 101.045 111.267 100.871 111.267C100.698 111.267 100.562 111.132 100.562 110.958C100.562 110.785 100.698 110.65 100.871 110.65C101.045 110.65 101.18 110.785 101.18 110.958Z" fill="#FFD061"/>
<path d="M101.8 110.543C101.906 110.543 102.003 110.63 102.003 110.746C102.003 110.862 101.916 110.949 101.8 110.949C101.684 110.949 101.598 110.862 101.598 110.746C101.598 110.63 101.684 110.543 101.8 110.543Z" fill="#FFD061"/>
<path d="M108.159 109.25C108.452 109.25 108.69 109.012 108.69 108.719C108.69 108.425 108.452 108.188 108.159 108.188C107.866 108.188 107.629 108.425 107.629 108.719C107.629 109.012 107.866 109.25 108.159 109.25Z" fill="#FFD061"/>
<path d="M109.879 110.321C110.049 110.321 110.188 110.183 110.188 110.012C110.188 109.842 110.049 109.704 109.879 109.704C109.708 109.704 109.57 109.842 109.57 110.012C109.57 110.183 109.708 110.321 109.879 110.321Z" fill="#FFD061"/>
<path d="M108.543 111.113C108.543 111.277 108.408 111.421 108.234 111.421C108.061 111.421 107.926 111.286 107.926 111.113C107.926 110.939 108.061 110.804 108.234 110.804C108.408 110.804 108.543 110.939 108.543 111.113Z" fill="#FFD061"/>
<path d="M109.16 110.688C109.266 110.688 109.362 110.775 109.362 110.891C109.362 111.007 109.275 111.093 109.16 111.093C109.044 111.093 108.957 111.007 108.957 110.891C108.957 110.775 109.044 110.688 109.16 110.688Z" fill="#FFD061"/>
<path d="M105.202 112.059C105.202 112.359 104.96 112.59 104.671 112.59C104.382 112.59 104.141 112.349 104.141 112.059C104.141 111.77 104.382 111.528 104.671 111.528C104.96 111.528 105.202 111.77 105.202 112.059Z" fill="#FFD061"/>
<path d="M106.69 113.353C106.69 113.517 106.555 113.661 106.391 113.661C106.227 113.661 106.082 113.526 106.082 113.353C106.082 113.179 106.217 113.044 106.391 113.044C106.564 113.044 106.69 113.179 106.69 113.353Z" fill="#FFD061"/>
<path d="M104.746 114.762C104.917 114.762 105.055 114.624 105.055 114.453C105.055 114.283 104.917 114.145 104.746 114.145C104.576 114.145 104.438 114.283 104.438 114.453C104.438 114.624 104.576 114.762 104.746 114.762Z" fill="#FFD061"/>
<path d="M105.667 114.434C105.779 114.434 105.87 114.343 105.87 114.231C105.87 114.12 105.779 114.029 105.667 114.029C105.556 114.029 105.465 114.12 105.465 114.231C105.465 114.343 105.556 114.434 105.667 114.434Z" fill="#FFD061"/>
<path d="M187.223 115.661H79.9805V118.412H187.223V115.661Z" fill="#68231A"/>
<path d="M187.223 93.9565H79.9805V96.7081H187.223V93.9565Z" fill="#68231A"/>
<path d="M187.223 72.2621H79.9805V75.0137H187.223V72.2621Z" fill="#68231A"/>
<g opacity="0.17">
<path d="M74.957 88.7236L119.189 133.001H168.156L90.9773 55.7426H74.957V88.7236Z" fill="white"/>
<path d="M136.184 55.7426L192.231 111.847V106.556L141.479 55.7426H136.184Z" fill="white"/>
<path d="M192.23 132.653L115.398 55.7426H98.375L175.554 133.001H192.23V132.653Z" fill="white"/>
</g>
<path d="M326 155.043H0V160.942H326V155.043Z" fill="#10ABCF"/>
<path d="M86.9219 123.664C86.9219 127.102 89.6996 129.882 93.1332 129.882C96.5668 129.882 99.3446 127.102 99.3446 123.664C99.3446 116.858 93.1332 113.228 93.1332 113.228C93.1332 113.228 86.9219 116.645 86.9219 123.664Z" fill="#19932E"/>
<path d="M93.1353 113.218C93.1353 113.218 99.1538 116.752 99.337 123.365C99.337 123.259 99.3563 123.153 99.3563 123.037C99.3563 116.23 93.145 112.6 93.145 112.6C93.145 112.6 86.9336 116.018 86.9336 123.037C86.9336 123.143 86.9432 123.249 86.9529 123.355C87.1265 116.539 93.1546 113.208 93.1546 113.208L93.1353 113.218Z" fill="#55DFC1"/>
<g style="mix-blend-mode:multiply" opacity="0.42">
<path d="M93.11 124.881C92.2613 121.54 89.6764 119.735 87.9886 118.876C87.352 120.227 86.918 121.82 86.918 123.664C86.918 126.571 88.9145 129.004 91.6054 129.689C92.9268 128.53 93.573 126.706 93.11 124.881Z" fill="#0ABD98"/>
</g>
<g style="mix-blend-mode:multiply" opacity="0.42">
<path d="M93.4109 124.881C94.2596 121.54 96.8445 119.735 98.5323 118.876C99.1689 120.227 99.6029 121.82 99.6029 123.664C99.6029 126.571 97.6064 129.004 94.9155 129.689C93.5941 128.53 92.9479 126.706 93.4109 124.881Z" fill="#0ABD98"/>
</g>
<path d="M83.3883 128.405C84.4974 130.828 87.362 131.89 89.7829 130.78C92.2038 129.67 93.2647 126.802 92.1556 124.379C89.9565 119.58 84.401 119.03 84.401 119.03C84.401 119.03 81.1217 123.452 83.3883 128.405Z" fill="#19932E"/>
<path d="M84.4004 119.03C84.4004 119.03 89.792 119.58 92.0489 124.176C92.0199 124.099 91.991 124.022 91.9524 123.944C89.7534 119.146 84.1979 118.596 84.1979 118.596C84.1979 118.596 80.9186 123.018 83.1852 127.97C83.2237 128.048 83.2623 128.115 83.3009 128.193C81.2272 123.327 84.3908 119.03 84.3908 119.03H84.4004Z" fill="#55DFC1"/>
<path d="M102.832 128.405C101.723 130.828 98.8583 131.89 96.4374 130.78C94.0166 129.67 92.9556 126.802 94.0648 124.379C96.2638 119.58 101.819 119.03 101.819 119.03C101.819 119.03 105.099 123.452 102.832 128.405Z" fill="#19932E"/>
<path d="M101.82 119.03C101.82 119.03 96.4288 119.58 94.1719 124.176C94.2008 124.099 94.2297 124.022 94.2683 123.944C96.4674 119.146 102.023 118.596 102.023 118.596C102.023 118.596 105.302 123.018 103.036 127.971C102.997 128.048 102.958 128.115 102.92 128.193C104.994 123.327 101.83 119.03 101.83 119.03H101.82Z" fill="#55DFC1"/>
<g style="mix-blend-mode:multiply" opacity="0.44">
<path d="M103.49 126.513C93.9804 129.284 82.7826 126.513 82.7826 126.513L82.7344 126.706C82.8501 127.121 82.9948 127.546 83.1877 127.97C83.2263 128.048 83.2649 128.115 83.3034 128.193C83.3324 128.26 83.3517 128.337 83.3902 128.405C84.4994 130.828 87.364 131.89 89.7848 130.78C90.4021 130.5 90.9326 130.095 91.357 129.621C91.926 129.795 92.524 129.882 93.1413 129.882C93.7586 129.882 94.3276 129.795 94.887 129.631C95.3114 130.104 95.8322 130.5 96.4495 130.78C98.8704 131.89 101.725 130.828 102.844 128.405C102.873 128.337 102.902 128.26 102.931 128.193C102.97 128.115 103.008 128.048 103.047 127.97C103.259 127.497 103.413 127.034 103.539 126.58C103.529 126.561 103.519 126.542 103.51 126.513H103.49Z" fill="#0ABD98"/>
</g>
<path d="M103.075 127.903H83.1875V155.052H103.075V127.903Z" fill="#FA2E48"/>
<path d="M103.075 127.903H83.1875V132.325H103.075V127.903Z" fill="#FA5C77"/>
<path d="M113.653 120.671H113.267C112.207 120.671 111.348 121.532 111.348 122.593V133.783C111.348 134.844 112.207 135.704 113.267 135.704H113.653C114.713 135.704 115.572 134.844 115.572 133.783V122.593C115.572 121.532 114.713 120.671 113.653 120.671Z" fill="#19932E"/>
<path d="M113.46 120.671C112.303 120.671 111.348 121.618 111.348 122.786V123.104C111.348 121.946 112.293 120.99 113.46 120.99C114.627 120.99 115.572 121.936 115.572 123.104V122.786C115.572 121.627 114.627 120.671 113.46 120.671Z" fill="#55DFC1"/>
<path d="M117.586 124.804H117.422C116.98 124.804 116.621 125.162 116.621 125.605V134.893C116.621 135.336 116.98 135.694 117.422 135.694H117.586C118.028 135.694 118.386 135.336 118.386 134.893V125.605C118.386 125.162 118.028 124.804 117.586 124.804Z" fill="#19932E"/>
<path d="M117.499 124.804C117.017 124.804 116.621 125.2 116.621 125.682V125.837C116.621 125.354 117.017 124.958 117.499 124.958C117.981 124.958 118.376 125.354 118.376 125.837V125.682C118.376 125.2 117.981 124.804 117.499 124.804Z" fill="#55DFC1"/>
<path d="M119.846 133.493H109.902V155.052H119.846V133.493Z" fill="#FA3317"/>
<path d="M119.846 133.493H109.902V135.704H119.846V133.493Z" fill="#FA613E"/>
<path d="M119.846 136.67H109.902V137.239H119.846V136.67Z" fill="#FA613E"/>
<path d="M119.846 138.205H109.902V138.774H119.846V138.205Z" fill="#FA613E"/>
<g style="mix-blend-mode:multiply" opacity="0.32">
<path d="M271.799 142.153C265.665 142.877 260.91 148.091 260.91 154.425C260.91 154.637 260.91 154.849 260.929 155.052H271.799V142.153Z" fill="#A8452B"/>
</g>
<path d="M306.251 149.047C304.486 149.047 302.905 149.848 301.863 151.113C300.532 148.207 297.6 146.179 294.195 146.179C291.929 146.179 289.874 147.077 288.35 148.545C286.257 144.683 282.178 142.067 277.49 142.067C270.671 142.067 265.145 147.599 265.145 154.425C265.145 154.637 265.145 154.85 265.164 155.052H311.961C311.961 154.956 311.961 154.859 311.961 154.763C311.961 151.606 309.405 149.047 306.251 149.047Z" fill="#19932E"/>
<path d="M277.488 142.269C282.175 142.269 286.265 144.886 288.348 148.748C289.862 147.29 291.917 146.382 294.193 146.382C297.598 146.382 300.53 148.41 301.861 151.316C302.912 150.051 304.484 149.25 306.249 149.25C309.374 149.25 311.911 151.77 311.949 154.888C311.949 154.84 311.949 154.792 311.949 154.753C311.949 151.596 309.394 149.037 306.24 149.037C304.475 149.037 302.893 149.839 301.851 151.103C300.52 148.197 297.588 146.17 294.183 146.17C291.917 146.17 289.863 147.068 288.339 148.535C286.246 144.673 282.166 142.057 277.478 142.057C270.659 142.057 265.133 147.589 265.133 154.415C265.133 154.454 265.133 154.483 265.133 154.521C265.191 147.744 270.698 142.269 277.478 142.269H277.488Z" fill="#55DFC1"/>
<g style="mix-blend-mode:multiply" opacity="0.47">
<path d="M91.0471 147.222C90.4202 145.591 89.5908 144.065 88.5684 142.675C87.9897 141.893 87.3821 141.149 86.6973 140.464C86.0125 139.778 85.2698 139.16 84.4886 138.591C83.9774 138.214 83.4469 137.857 82.8971 137.529C80.0326 135.83 76.6954 134.825 73.1171 134.825C70.0693 134.825 67.1951 135.54 64.6392 136.805C62.6041 137.809 60.7716 139.151 59.2187 140.782C59.2187 140.782 59.2091 140.792 59.1995 140.802C58.9294 141.082 58.6883 141.391 58.4375 141.69V155.043H92.301C92.3203 154.714 92.3299 154.386 92.3299 154.058C92.3299 152.726 92.1949 151.432 91.9441 150.186C91.7319 149.163 91.4233 148.178 91.0568 147.222H91.0471Z" fill="#A8452B"/>
</g>
<path d="M24.1312 145.706C26.88 145.706 29.3395 146.962 30.9598 148.921C33.0335 144.393 37.5859 141.246 42.8907 141.246C46.4207 141.246 49.6228 142.646 51.9762 144.915C55.2266 138.909 61.573 134.835 68.8742 134.835C79.4837 134.835 88.087 143.447 88.087 154.068C88.087 154.396 88.087 154.724 88.058 155.052H15.2675C15.2675 154.898 15.2578 154.753 15.2578 154.599C15.2578 149.694 19.2315 145.706 24.1408 145.706H24.1312Z" fill="#19932E"/>
<path d="M68.8742 135.163C61.573 135.163 55.2266 139.238 51.9762 145.243C49.6132 142.974 46.4207 141.574 42.8907 141.574C37.5859 141.574 33.0335 144.722 30.9598 149.25C29.3298 147.29 26.88 146.035 24.1312 146.035C19.2605 146.035 15.3157 149.955 15.2578 154.811C15.2578 154.734 15.2578 154.666 15.2578 154.589C15.2578 149.684 19.2315 145.697 24.1408 145.697C26.8896 145.697 29.3491 146.952 30.9695 148.912C33.0431 144.384 37.5956 141.236 42.9003 141.236C46.4304 141.236 49.6325 142.636 51.9859 144.905C55.2362 138.9 61.5826 134.825 68.8838 134.825C79.4933 134.825 88.0966 143.438 88.0966 154.058C88.0966 154.116 88.0966 154.164 88.0966 154.222C88.0098 143.679 79.4451 135.154 68.8935 135.154L68.8742 135.163Z" fill="#55DFC1"/>
<path d="M288.213 72.8124C295.292 72.8124 301.031 67.0676 301.031 59.9811C301.031 52.8946 295.292 47.1498 288.213 47.1498C281.133 47.1498 275.395 52.8946 275.395 59.9811C275.395 67.0676 281.133 72.8124 288.213 72.8124Z" fill="#862A1A"/>
<path d="M288.211 70.6014C294.07 70.6014 298.82 65.8466 298.82 59.9811C298.82 54.1157 294.07 49.3608 288.211 49.3608C282.352 49.3608 277.602 54.1157 277.602 59.9811C277.602 65.8466 282.352 70.6014 288.211 70.6014Z" fill="#4C160B"/>
<path d="M295.985 62.8293C295.773 60.8501 294.075 59.286 292.069 59.286H284.208C282.029 59.286 280.254 61.0625 280.254 63.2445V63.8431C280.254 64.6444 280.9 65.3009 281.701 65.3009H294.557C295.358 65.3009 296.004 64.6541 296.004 63.8431V62.8293H295.975H295.985Z" fill="#862A1A"/>
<path d="M295.713 63.1576C295.664 61.1783 294.054 59.5853 292.067 59.5853H284.206C282.19 59.5853 280.551 61.2266 280.551 63.2444V63.8431C280.551 64.4899 281.072 65.0016 281.708 65.0016H294.565C295.201 65.0016 295.722 64.4803 295.722 63.8431V63.1576H295.713ZM294.681 63.9686H281.573V63.2444C281.573 61.7962 282.75 60.6183 284.197 60.6183H284.862C284.361 61.2362 284.071 62.0086 284.071 62.81C284.071 63.0031 284.226 63.1576 284.418 63.1576C284.611 63.1576 284.766 63.0031 284.766 62.81C284.766 61.9604 285.171 61.1493 285.836 60.6183H287.611C287.109 61.2362 286.82 62.0086 286.82 62.81C286.82 63.0031 286.974 63.1576 287.167 63.1576C287.36 63.1576 287.514 63.0031 287.514 62.81C287.514 61.9604 287.92 61.1493 288.585 60.6183H290.36C289.858 61.2362 289.569 62.0086 289.569 62.81C289.569 63.0031 289.723 63.1576 289.916 63.1576C290.109 63.1576 290.263 63.0031 290.263 62.81C290.263 61.9604 290.668 61.1493 291.334 60.6183H292.028C293.475 60.6183 294.652 61.7962 294.652 63.2444V63.9686H294.681Z" fill="#28040B"/>
<path d="M288.294 51.7262C288.169 51.6007 288.005 51.5331 287.831 51.5331C287.696 51.5331 287.494 51.6007 287.368 51.7166C287.108 51.9676 287.108 52.3828 287.359 52.6434C287.397 52.6821 288.198 53.5317 287.571 54.9123C287.281 55.5399 287.137 56.1771 287.137 56.795C287.137 57.8764 287.58 58.5232 287.6 58.5425C287.725 58.726 287.928 58.8322 288.14 58.8322C288.265 58.8322 288.391 58.7936 288.497 58.726C288.796 58.5329 288.882 58.1274 288.68 57.8281C288.661 57.7895 288.101 56.9012 288.757 55.4626C289.76 53.2227 288.294 51.7455 288.284 51.7359L288.294 51.7262Z" fill="#862A1A"/>
<path d="M286.397 53.8406C286.29 53.7344 286.155 53.6861 286.02 53.6861C285.876 53.6861 285.741 53.7441 285.644 53.8406C285.432 54.0434 285.432 54.391 285.635 54.6034C285.654 54.6227 286.155 55.1633 285.76 56.0323C285.557 56.4764 285.461 56.9205 285.461 57.3453C285.461 58.1081 285.779 58.5715 285.789 58.5908C285.895 58.7453 286.059 58.8225 286.233 58.8225C286.339 58.8225 286.435 58.7936 286.532 58.7356C286.782 58.5715 286.85 58.2336 286.686 57.9922C286.667 57.9632 286.329 57.4033 286.744 56.4764C287.448 54.9123 286.445 53.8792 286.406 53.8406H286.397Z" fill="#862A1A"/>
<path d="M290.582 56.4764C291.267 54.9606 290.35 53.9565 290.244 53.8406C290.042 53.6282 289.694 53.6282 289.482 53.8406C289.27 54.053 289.27 54.391 289.482 54.6034C289.502 54.6227 290.003 55.1634 289.608 56.0323C289.405 56.4764 289.309 56.9205 289.309 57.3453C289.309 58.1081 289.627 58.5715 289.637 58.5812C289.714 58.697 289.839 58.7839 289.984 58.8129C290.022 58.8129 290.051 58.8225 290.09 58.8225C290.196 58.8225 290.302 58.7936 290.389 58.7356C290.64 58.5715 290.707 58.2336 290.543 57.9826C290.524 57.9633 290.186 57.4033 290.601 56.4764H290.582Z" fill="#862A1A"/>
<path d="M287.453 56.795C287.453 56.3026 287.55 55.704 287.858 55.0378C288.562 53.4737 287.627 52.4793 287.588 52.431C287.453 52.2959 287.453 52.0641 287.588 51.929C287.723 51.7938 287.945 51.7938 288.08 51.929C288.138 51.9869 289.401 53.3 288.495 55.3178C287.771 56.9205 288.418 57.9246 288.437 57.9729C288.543 58.137 288.495 58.3494 288.34 58.4556C288.177 58.5618 287.964 58.5232 287.858 58.3591C287.839 58.3205 287.453 57.7412 287.453 56.7757V56.795Z" fill="#28040B"/>
<path d="M285.756 57.3453C285.756 57.0074 285.823 56.6116 286.026 56.1481C286.508 55.0861 285.871 54.4103 285.843 54.3813C285.746 54.2848 285.756 54.1399 285.843 54.0434C285.939 53.9468 286.084 53.9468 286.18 54.0434C286.219 54.082 287.077 54.9702 286.46 56.3412C285.968 57.4322 286.402 58.1081 286.421 58.137C286.489 58.2432 286.46 58.3977 286.354 58.4653C286.248 58.5425 286.093 58.5136 286.026 58.3977C286.006 58.3687 285.746 57.9826 285.746 57.326L285.756 57.3453Z" fill="#28040B"/>
<path d="M289.603 57.3453C289.603 57.0074 289.671 56.6116 289.873 56.1481C290.356 55.0861 289.719 54.4103 289.69 54.3813C289.594 54.2848 289.603 54.1399 289.69 54.0434C289.787 53.9468 289.931 53.9468 290.028 54.0434C290.066 54.082 290.925 54.9702 290.307 56.3412C289.816 57.4322 290.25 58.1081 290.269 58.137C290.336 58.2432 290.307 58.3977 290.201 58.4653C290.095 58.5425 289.941 58.5136 289.873 58.3977C289.854 58.3687 289.594 57.9826 289.594 57.326L289.603 57.3453Z" fill="#28040B"/>
<defs>
<linearGradient id="paint0_linear_3131_15591" x1="158.059" y1="158.634" x2="100.265" y2="100.9" gradientUnits="userSpaceOnUse">
<stop stop-color="white" stop-opacity="0"/>
<stop offset="1" stop-color="#FFD159"/>
</linearGradient>
<linearGradient id="paint1_linear_3131_15591" x1="265.73" y1="97.326" x2="227.023" y2="58.6594" gradientUnits="userSpaceOnUse">
<stop stop-color="white" stop-opacity="0"/>
<stop offset="1" stop-color="#FFD159"/>
</linearGradient>
<linearGradient id="paint2_linear_3131_15591" x1="150.508" y1="53.7344" x2="93.7959" y2="-2.92009" gradientUnits="userSpaceOnUse">
<stop stop-color="white" stop-opacity="0"/>
<stop offset="1" stop-color="#FFD159"/>
</linearGradient>
</defs>
</svg>
