<svg width="18" height="16" viewBox="0 0 18 16" fill="none" xmlns="http://www.w3.org/2000/svg">
<path d="M17.2737 9.11375L17.2677 9.11644L1.25074 15.9297C1.11602 15.9876 0.969426 16.0102 0.824067 15.9957C0.678708 15.9812 0.53912 15.93 0.417789 15.8467C0.2896 15.7605 0.184304 15.643 0.111376 15.5048C0.0384475 15.3665 0.000174427 15.2119 2.04773e-07 15.0547V10.6973C7.14361e-05 10.4824 0.0732291 10.2743 0.206864 10.1088C0.340499 9.9433 0.526238 9.8308 0.732069 9.79069L9.46776 8.1341C9.50209 8.12743 9.53306 8.10868 9.55535 8.08108C9.57764 8.05348 9.58983 8.01878 9.58983 7.98294C9.58983 7.94711 9.57764 7.9124 9.55535 7.88481C9.53306 7.85721 9.50209 7.83846 9.46776 7.83179L0.732444 6.17519C0.526671 6.13519 0.340942 6.02284 0.207247 5.85751C0.0735527 5.69217 0.000262533 5.48419 2.04773e-07 5.2694V0.911183C-9.93957e-05 0.761096 0.0361362 0.613332 0.105455 0.48115C0.174775 0.348969 0.275008 0.236505 0.397162 0.153852C0.544101 0.0537262 0.716544 0.00021553 0.892959 0C1.0156 0.000110626 1.13699 0.0253487 1.24999 0.0742331L17.2666 6.84868L17.2737 6.85214C17.4893 6.94716 17.673 7.10493 17.8021 7.30591C17.9312 7.50689 18 7.74228 18 7.98294C18 8.22361 17.9312 8.45899 17.8021 8.65998C17.673 8.86096 17.4893 9.01872 17.2737 9.11375Z" fill="white"/>
</svg>
