<svg width="14" height="14" viewBox="0 0 14 14" fill="none" xmlns="http://www.w3.org/2000/svg">
<g clip-path="url(#clip0_2586_13440)">
<path d="M10.8693 2.97887C10.9025 0.594822 8.66435 0.63134 8.66435 0.63134C8.66435 0.63134 5.17702 0.579172 2.81835 0.63134C0.457938 0.681768 0.613436 2.97366 0.613436 2.97366V10.8909C0.613436 13.188 2.86902 13.3915 2.86902 13.3915H10.6649C13.6385 13.3915 13.3834 10.8388 13.3834 10.8388V5.02036C13.3834 2.77542 10.8693 2.97887 10.8693 2.97887ZM10.8693 2.97887H3.94702" stroke="#979797" stroke-linecap="round" stroke-linejoin="round"/>
<path d="M13.3832 6.32788V9.21448H10.8847C10.4846 9.21448 10.1212 9.05276 9.85913 8.79192C9.59706 8.52935 9.43457 8.16939 9.43457 7.77118C9.43457 6.97302 10.0845 6.32788 10.8847 6.32788H13.3832Z" stroke="#979797" stroke-linecap="round" stroke-linejoin="round"/>
</g>
<defs>
<clipPath id="clip0_2586_13440">
<rect width="14" height="14" fill="white"/>
</clipPath>
</defs>
</svg>
