<svg width="175" height="136" viewBox="0 0 175 136" fill="none" xmlns="http://www.w3.org/2000/svg">
<g clip-path="url(#clip0_2064_9579)">
<path d="M104.091 16.5381H34.3388C30.9121 16.5381 28.1343 19.3123 28.1343 22.7344V116.02C28.1343 119.442 30.9121 122.216 34.3388 122.216H104.091C107.518 122.216 110.295 119.442 110.295 116.02V22.7344C110.295 19.3123 107.518 16.5381 104.091 16.5381Z" fill="#EEECF0"/>
<path d="M103.125 26.3595V109.958C103.125 112.794 100.907 115.202 98.0848 115.29C98.0439 115.293 98.0066 115.293 97.9662 115.293C95.0543 115.32 92.709 112.967 92.709 110.097H92.5426V108.999H34.3328V26.3595C34.3328 24.7572 35.6353 23.46 37.2394 23.46H100.222C101.826 23.46 103.125 24.7572 103.125 26.3595Z" fill="white"/>
<path d="M91.4631 29.0611H45.9973C45.9973 27.1824 46.7613 25.4758 47.9939 24.2449C49.2345 23.0143 50.9349 22.2509 52.8165 22.2509H54.6435C55.4087 22.2509 56.029 21.6314 56.029 20.8672V16.6668C56.029 15.6226 56.8768 14.776 57.9224 14.776H61.6168C62.6625 14.776 63.5102 13.9294 63.5102 12.8851V11.0068C63.5102 8.13553 65.7746 5.69951 68.6493 5.65303C71.5644 5.60616 73.9518 7.95206 73.9518 10.8625V12.8855C73.9518 13.9298 74.7996 14.7764 75.8452 14.7764H79.5397C80.5853 14.7764 81.433 15.623 81.433 16.6672V20.8676C81.433 21.6318 82.0534 22.2513 82.8186 22.2513H84.6455C88.4084 22.2513 91.4643 25.3036 91.4643 29.0611H91.4631Z" fill="#10ABCF"/>
<path d="M71.4992 10.5166C71.4992 12.0425 70.2602 13.2771 68.7318 13.2771C67.2035 13.2771 65.9612 12.0425 65.9612 10.5166C65.9612 8.99064 67.2002 7.75 68.7318 7.75C70.2634 7.75 71.4992 8.98458 71.4992 10.5166Z" fill="white"/>
<path d="M97.9169 115.296H32.1445C29.2698 115.296 26.937 112.966 26.937 110.096V108.831H92.7131V110.096C92.7131 112.996 95.073 115.296 97.9173 115.296H97.9169Z" fill="white"/>
<path d="M54.7725 45.9899C54.7725 50.375 51.2152 53.9276 46.8244 53.9276C42.4335 53.9276 38.8738 50.375 38.8738 45.9899C38.8738 41.6048 42.4335 38.0498 46.8244 38.0498C51.2152 38.0498 54.7725 41.6048 54.7725 45.9899Z" fill="#F992C7"/>
<path d="M50.4621 44.2394L45.7952 48.9195C45.4691 49.2468 44.939 49.2476 44.6112 48.9219L43.1873 47.5063C42.8595 47.1801 42.8583 46.6503 43.1848 46.323C43.5114 45.9957 44.0415 45.9949 44.3692 46.321L45.1992 47.1466L49.2744 43.0581C49.601 42.7304 50.1319 42.7292 50.4597 43.0553C50.7878 43.3814 50.7886 43.9116 50.4621 44.239V44.2394Z" fill="white"/>
<path d="M54.7725 70.3874C54.7725 74.7724 51.2152 78.325 46.8244 78.325C42.4335 78.325 38.8738 74.7724 38.8738 70.3874C38.8738 66.0023 42.4335 62.4473 46.8244 62.4473C51.2152 62.4473 54.7725 66.0023 54.7725 70.3874Z" fill="#FFD857"/>
<path d="M50.4621 68.6368L45.7952 73.3169C45.4691 73.6443 44.939 73.6451 44.6112 73.3193L43.1873 71.9037C42.8595 71.5776 42.8583 71.0478 43.1848 70.7205C43.5114 70.3931 44.0415 70.3923 44.3692 70.7184L45.1992 71.5441L49.2744 67.4556C49.601 67.1279 50.1319 67.1266 50.4597 67.4528C50.7878 67.7789 50.7886 68.3091 50.4621 68.6364V68.6368Z" fill="white"/>
<path d="M54.7725 94.7838C54.7725 99.1689 51.2152 102.722 46.8244 102.722C42.4335 102.722 38.8738 99.1689 38.8738 94.7838C38.8738 90.3988 42.4335 86.8438 46.8244 86.8438C51.2152 86.8438 54.7725 90.3988 54.7725 94.7838Z" fill="white"/>
<path d="M5.5029 114.357C5.2334 117.458 9.65786 119.285 9.65786 119.285L10.5412 113.47L8.6786 113.512C8.6786 113.512 5.38069 107.692 2.26245 106.325C2.26245 106.325 5.69511 112.147 5.5029 114.357Z" fill="white"/>
<path d="M14.5146 114.357C14.7841 117.458 10.3597 119.285 10.3597 119.285L9.47632 113.47L11.3389 113.512C11.3389 113.512 14.6368 107.692 17.7551 106.325C17.7551 106.325 14.3224 112.147 14.5146 114.357Z" fill="#0ACF83"/>
<path d="M12.0065 121.161L13.2698 116.182C13.2698 116.182 12.3245 114.051 11.5549 112.713C10.8075 111.373 11.4452 108.585 11.4452 108.585C7.28946 109.99 6.49837 115.743 6.49837 115.743L6.23413 119.191C6.23413 119.191 6.77353 120.145 7.29351 121.161H12.0065Z" fill="#EEECF0"/>
<path d="M14.3415 121.161C14.9744 119.789 15.1637 118.134 15.2459 117.079C15.4154 114.923 17.9344 112.11 17.9344 112.11C11.7954 113.02 9.30762 121.138 9.30762 121.138V121.162H14.3411L14.3415 121.161Z" fill="white"/>
<path d="M4.26355 121.162H9.29741V121.138C9.29741 121.138 6.80962 113.02 0.670654 112.11C0.670654 112.11 3.18961 114.923 3.35916 117.079C3.4413 118.134 3.63108 119.789 4.26355 121.161V121.162Z" fill="#0ACF83"/>
<path d="M17.0861 122.053L15.55 133.184H3.52014L1.54746 122.083C1.46532 121.619 1.82182 121.194 2.29283 121.194H16.3358C16.7951 121.194 17.1484 121.599 17.0857 122.053H17.0861Z" fill="#EEECF0"/>
<path d="M13.4014 124.487L12.5937 130.341H6.26739L5.22987 124.502C5.18657 124.259 5.37433 124.035 5.62197 124.035H13.0073C13.2488 124.035 13.4346 124.248 13.4018 124.487L13.4014 124.487Z" fill="white"/>
<path d="M15.8544 133.184V134.758C15.8544 135.35 15.3732 135.831 14.7804 135.831H3.8435C3.25554 135.831 2.77441 135.35 2.77441 134.758V133.184H15.8544Z" fill="#FCFAFC"/>
<path d="M20.3919 82.7072L15.1999 92.7927C14.8494 93.4737 14.0134 93.7388 13.332 93.3928L9.87708 91.6159L6.71109 93.6701C6.34124 93.9085 5.85201 93.6584 5.833 93.2199L5.66345 89.4543L2.20489 87.6811C1.52306 87.3311 1.25761 86.4962 1.60399 85.8156L6.79607 75.7301C7.14649 75.0492 7.9825 74.78 8.66394 75.13L19.791 80.8422C20.4729 81.1921 20.7383 82.0271 20.3919 82.7076V82.7072Z" fill="#EEECF0"/>
<path d="M22.6316 82.4776L17.4416 92.5636C17.0915 93.2437 16.2555 93.512 15.5745 93.1625L12.1176 91.3884L8.95239 93.4405C8.58416 93.6793 8.09575 93.4284 8.07551 92.9903L7.90354 89.226L4.4466 87.4519C3.76557 87.1023 3.49689 86.2674 3.84691 85.5869L9.03696 75.5014C9.38699 74.8208 10.223 74.5529 10.9044 74.9024L22.0319 80.613C22.713 80.9626 22.9816 81.7975 22.6316 82.478V82.4776Z" fill="white"/>
<path d="M15.9812 86.2184L11.7927 87.5601C11.5483 87.6385 11.2869 87.5039 11.2084 87.2598L9.86491 83.0768C9.45419 81.8002 10.1611 80.4311 11.4358 80.0209C12.7141 79.6143 14.085 80.3135 14.4957 81.5933C15.7599 81.1908 17.1361 81.8746 17.5557 83.1621C17.9628 84.4387 17.2595 85.8078 15.9812 86.218V86.2184Z" fill="#EEECF0"/>
<path d="M37.5398 132.212L35.8803 131.947C35.8047 131.939 35.7363 131.97 35.691 132.03L34.706 133.392L34.9638 131.728C34.9788 131.659 34.9488 131.592 34.8958 131.546L33.5317 130.562L35.1912 130.819C35.2669 130.827 35.3353 130.804 35.3729 130.744L36.3655 129.382L36.1005 131.039C36.0855 131.115 36.1154 131.183 36.1761 131.228L37.5402 132.212H37.5398Z" fill="white"/>
<path d="M34.7061 133.511C34.6911 133.511 34.6757 133.508 34.6612 133.502C34.6102 133.481 34.5806 133.428 34.5891 133.374L34.8469 131.709C34.8538 131.677 34.8368 131.652 34.8186 131.636L33.4622 130.658C33.4177 130.626 33.4011 130.568 33.4221 130.517C33.4432 130.466 33.4946 130.436 33.55 130.445L35.2095 130.702C35.2281 130.704 35.2593 130.702 35.2726 130.681L36.2697 129.312C36.3016 129.267 36.3603 129.25 36.4113 129.272C36.4619 129.293 36.4914 129.346 36.4829 129.401L36.2179 131.058C36.215 131.073 36.2086 131.104 36.2474 131.134L37.6099 132.116C37.6544 132.148 37.671 132.206 37.6499 132.257C37.6289 132.307 37.5755 132.336 37.5213 132.329L35.8618 132.065C35.8335 132.059 35.8067 132.074 35.7861 132.102L34.8024 133.462C34.7797 133.494 34.7433 133.511 34.7061 133.511V133.511ZM34.0016 130.755L34.9651 131.45C35.0622 131.533 35.1031 131.647 35.0796 131.753L34.8987 132.924L35.5951 131.961C35.6679 131.865 35.776 131.817 35.8933 131.83L37.0664 132.017L36.107 131.325C36.0058 131.249 35.9609 131.134 35.9844 131.016L36.1705 129.851L35.4693 130.813C35.4142 130.902 35.3082 130.951 35.1799 130.938L34.002 130.755L34.0016 130.755Z" fill="#797885"/>
<path d="M100.936 6.37989L99.4747 6.14671C99.4079 6.13984 99.348 6.16651 99.3079 6.21986L98.4404 7.41928L98.6674 5.95354C98.6807 5.89333 98.654 5.83352 98.6075 5.79351L97.4065 4.92749L98.8677 5.15379C98.9345 5.16026 98.9943 5.14046 99.0279 5.08712L99.902 3.8877L99.6685 5.34696C99.6551 5.41364 99.6818 5.47345 99.7353 5.51346L100.936 6.37948L100.936 6.37989Z" fill="white"/>
<path d="M98.3225 7.40118L98.5495 5.93545C98.5544 5.9116 98.5414 5.89382 98.5293 5.88332L97.336 5.02335C97.234 4.9498 97.3032 4.78937 97.4238 4.80998L98.885 5.03629C98.8915 5.03629 98.9178 5.03709 98.9263 5.02376L99.8052 3.81747C99.878 3.71725 100.038 3.78312 100.018 3.90597L99.7849 5.36524C99.7825 5.37817 99.7785 5.39797 99.8056 5.41818L101.005 6.28339C101.104 6.35452 101.043 6.51333 100.917 6.49676L99.4555 6.26359C99.4381 6.26157 99.4175 6.27086 99.4025 6.29107L98.5362 7.48887C98.4637 7.58909 98.3035 7.52403 98.3225 7.40118ZM97.8758 5.12034L98.6766 5.69783C98.7672 5.77501 98.8049 5.88049 98.783 5.9795L98.6329 6.95099L99.2115 6.15084C99.2783 6.06193 99.3774 6.01789 99.4867 6.0292L100.462 6.18479L99.6651 5.61013C99.5713 5.53982 99.5296 5.43353 99.5514 5.32402L99.706 4.35737L99.1233 5.15712C99.0723 5.23915 98.9724 5.28482 98.8558 5.27189L97.8758 5.12034Z" fill="#797885"/>
<path d="M11.4142 34.4488L9.85064 34.2014C9.77942 34.1913 9.71508 34.2216 9.67098 34.2794L8.74149 35.5633L8.9859 33.9949C8.99966 33.9307 8.97214 33.8664 8.92156 33.8224L7.63599 32.8941L9.19956 33.1382C9.27078 33.1451 9.33512 33.1245 9.37234 33.0671L10.3083 31.7832L10.0574 33.3447C10.0437 33.4158 10.0712 33.4801 10.1286 33.5241L11.4142 34.4488Z" fill="white"/>
<path d="M8.74106 35.6822C8.72569 35.6822 8.71071 35.6794 8.69574 35.6733C8.64516 35.6523 8.61521 35.5993 8.62371 35.5456L8.86812 33.9772C8.87338 33.9518 8.86367 33.9299 8.84344 33.9126L7.56595 32.9908C7.52144 32.9588 7.50485 32.9002 7.52589 32.8493C7.54694 32.7984 7.59711 32.7681 7.65417 32.7774L9.21774 33.0215C9.24121 33.0235 9.26347 33.0178 9.27277 33.0029L10.2128 31.7138C10.2452 31.6693 10.3038 31.6531 10.3544 31.6742C10.405 31.6952 10.4349 31.7481 10.426 31.8027L10.1751 33.3642C10.1715 33.3836 10.1707 33.4074 10.201 33.4309L11.4838 34.3535C11.5283 34.3854 11.5449 34.444 11.5243 34.4949C11.5032 34.5458 11.4502 34.5753 11.396 34.5668L9.83241 34.3195C9.80691 34.3159 9.78506 34.3272 9.76564 34.3522L8.83818 35.6337C8.81552 35.6652 8.7791 35.683 8.74187 35.683L8.74106 35.6822ZM8.10576 33.0878L8.99033 33.7267C9.08502 33.8079 9.12346 33.9154 9.1012 34.0201L8.93408 35.0946L9.57424 34.2104C9.64708 34.115 9.75471 34.0681 9.8668 34.0847L10.9395 34.2544L10.0586 33.6208C9.96189 33.5468 9.9186 33.4361 9.94004 33.323L10.1116 32.2533L9.46741 33.1371C9.41197 33.2227 9.30798 33.2664 9.18739 33.2567L8.10535 33.0882L8.10576 33.0878Z" fill="#797885"/>
<path d="M21.2267 56.2179C21.2267 56.7828 20.7686 57.2484 20.1989 57.2484C19.6291 57.2484 19.167 56.7824 19.167 56.2179C19.167 55.6533 19.6291 55.1914 20.1989 55.1914C20.7686 55.1914 21.2267 55.6489 21.2267 56.2179Z" fill="#EAF0F4"/>
<path d="M122.368 27.4227C122.368 27.9457 121.944 28.3769 121.417 28.3769C120.889 28.3769 120.461 27.9457 120.461 27.4227C120.461 26.8998 120.889 26.4727 121.417 26.4727C121.944 26.4727 122.368 26.8962 122.368 27.4227Z" fill="white"/>
<path d="M121.417 28.5466C120.796 28.5466 120.292 28.0426 120.292 27.4231C120.292 26.8036 120.796 26.3037 121.417 26.3037C122.037 26.3037 122.538 26.806 122.538 27.4231C122.538 28.0402 122.035 28.5466 121.417 28.5466ZM121.417 26.6424C120.983 26.6424 120.631 26.9927 120.631 27.4231C120.631 27.8535 120.983 28.2079 121.417 28.2079C121.85 28.2079 122.198 27.8559 122.198 27.4231C122.198 26.9903 121.848 26.6424 121.417 26.6424Z" fill="#797885"/>
<path d="M169.737 89.3924H167.325C167.231 89.3924 167.156 89.3168 167.156 89.223C167.156 89.1293 167.231 89.0537 167.325 89.0537H169.737C169.831 89.0537 169.907 89.1293 169.907 89.223C169.907 89.3168 169.831 89.3924 169.737 89.3924Z" fill="#797885"/>
<path d="M168.531 90.5962C168.437 90.5962 168.362 90.5206 168.362 90.4269V88.018C168.362 87.9242 168.437 87.8486 168.531 87.8486C168.625 87.8486 168.701 87.9242 168.701 88.018V90.4269C168.701 90.5206 168.625 90.5962 168.531 90.5962Z" fill="#797885"/>
<path d="M170.684 28.7466C170.641 28.7466 170.598 28.73 170.565 28.6968C170.498 28.6306 170.498 28.5235 170.565 28.4572L173.057 25.9687C173.123 25.9024 173.23 25.9024 173.296 25.9687C173.363 26.0349 173.363 26.142 173.296 26.2083L170.805 28.6968C170.771 28.73 170.728 28.7466 170.685 28.7466H170.684Z" fill="#797885"/>
<path d="M173.176 28.7466C173.133 28.7466 173.09 28.73 173.057 28.6968L170.565 26.2083C170.498 26.142 170.498 26.0349 170.565 25.9687C170.631 25.9024 170.738 25.9024 170.805 25.9687L173.296 28.4572C173.363 28.5235 173.363 28.6306 173.296 28.6968C173.263 28.73 173.22 28.7466 173.177 28.7466H173.176Z" fill="#797885"/>
<path d="M143.104 128.572V131.126H134.723V128.715L134.893 128.691V128.735C136.576 128.823 142.11 128.82 143.104 128.572Z" fill="white"/>
<path d="M131.456 133.908C131.193 133.316 130.792 132.934 130.231 132.742C130.083 132.692 130.159 132.468 130.308 132.518C130.935 132.733 131.382 133.156 131.673 133.812C131.7 133.871 131.673 133.942 131.613 133.968C131.555 133.994 131.484 133.969 131.456 133.908Z" fill="white"/>
<path d="M132.86 133.148C132.597 132.556 132.196 132.175 131.634 131.982C131.487 131.932 131.562 131.708 131.712 131.758C132.339 131.973 132.786 132.397 133.077 133.052C133.104 133.112 133.077 133.182 133.017 133.209C132.959 133.234 132.887 133.209 132.86 133.148Z" fill="white"/>
<path d="M134.235 132.524C134.02 131.893 133.537 131.367 133.005 131.184C132.943 131.163 132.91 131.096 132.931 131.034C132.953 130.972 133.02 130.94 133.082 130.96C133.691 131.169 134.218 131.739 134.46 132.448C134.481 132.51 134.448 132.577 134.386 132.598C134.324 132.619 134.256 132.587 134.235 132.524L134.235 132.524Z" fill="white"/>
<path d="M139.424 135.789C139.362 135.789 139.31 135.741 139.306 135.678L139.304 135.648C139.256 134.865 139.555 134.107 140.147 133.515C140.737 132.925 141.545 132.571 142.424 132.516C142.653 132.502 142.88 132.51 143.118 132.542C143.183 132.55 143.229 132.61 143.22 132.675C143.212 132.74 143.151 132.785 143.087 132.777C142.865 132.748 142.653 132.74 142.438 132.753C141.618 132.804 140.864 133.134 140.315 133.682C139.772 134.226 139.497 134.919 139.541 135.633L139.543 135.663C139.547 135.729 139.497 135.785 139.432 135.789H139.424Z" fill="white"/>
<path d="M162.634 128.555V131.126H154.504V128.572C155.144 128.572 157.153 128.79 162.465 128.569V128.535C162.475 128.536 162.592 128.551 162.634 128.555Z" fill="white"/>
<path d="M165.901 133.812C166.193 133.156 166.64 132.733 167.266 132.518C167.329 132.497 167.396 132.53 167.417 132.592C167.438 132.654 167.406 132.721 167.344 132.742C166.782 132.935 166.382 133.316 166.118 133.908C166.054 134.051 165.837 133.955 165.901 133.812Z" fill="white"/>
<path d="M164.497 133.052C164.789 132.396 165.236 131.974 165.863 131.758C166.013 131.708 166.087 131.932 165.94 131.982C165.379 132.175 164.978 132.556 164.714 133.148C164.65 133.291 164.434 133.195 164.497 133.052Z" fill="white"/>
<path d="M163.115 132.448C163.356 131.739 163.884 131.169 164.493 130.96C164.555 130.94 164.623 130.972 164.644 131.034C164.665 131.096 164.632 131.164 164.57 131.185C164.037 131.367 163.555 131.893 163.34 132.524C163.289 132.673 163.064 132.597 163.115 132.448Z" fill="white"/>
<path d="M158.15 135.789H158.143C158.077 135.785 158.027 135.729 158.031 135.664L158.033 135.634C158.125 134.15 156.825 132.858 155.136 132.754C154.921 132.741 154.709 132.749 154.487 132.778C154.424 132.786 154.362 132.74 154.354 132.676C154.345 132.611 154.391 132.551 154.456 132.543C154.693 132.511 154.92 132.504 155.15 132.517C156.97 132.63 158.37 134.034 158.27 135.648L158.268 135.678C158.264 135.741 158.212 135.789 158.15 135.789H158.15Z" fill="white"/>
<path d="M135.461 73.2119L133.689 128.737C134.277 129.075 143.5 129.075 143.5 128.584L147.811 91.6061L153.551 128.584C153.551 128.913 163.337 128.913 163.337 128.584L158.195 73.3719L135.461 73.2123L135.461 73.2119Z" fill="#353535"/>
<path d="M158.812 80.0995C158.757 80.1027 158.706 80.1027 158.652 80.1063C152.184 80.4046 145.234 80.9057 140.279 80.0861C138.929 79.8659 137.729 79.5474 136.725 79.0968C137.135 79.2189 137.6 79.3272 138.115 79.4286C139.957 79.7842 142.437 79.9875 145.303 79.9875C150.631 79.9875 156.296 79.2524 158.419 78.0025C158.433 77.9956 158.446 77.9888 158.456 77.9823C158.497 77.9552 158.537 77.9314 158.575 77.9043L158.612 78.2531L158.812 80.0991L158.812 80.0995Z" fill="#2F2E40"/>
<path d="M158.774 78.1522L158.734 77.793C158.686 77.8338 158.632 77.871 158.574 77.9049C158.537 77.932 158.496 77.9558 158.456 77.9829C158.446 77.9898 158.432 77.9966 158.418 78.0031L158.452 78.3454L158.625 79.9376C157.788 79.9748 156.943 80.0188 156.095 80.0597C152.14 80.2561 148.121 80.4561 144.597 80.3203C142.131 80.2254 139.906 79.9679 138.115 79.4296C137.599 79.3282 137.135 79.2195 136.724 79.0979C136.236 78.9524 135.826 78.7932 135.5 78.6202C136.222 79.1047 137.104 79.4838 138.115 79.7788C140.523 80.4832 143.661 80.7034 147.1 80.7034C149.976 80.7034 153.063 80.5511 156.112 80.3987C156.967 80.3579 157.822 80.3139 158.669 80.2734C158.72 80.2702 158.768 80.2702 158.819 80.2666C158.866 80.2666 158.91 80.2464 158.941 80.2092C158.971 80.1752 158.985 80.128 158.982 80.0803L158.775 78.153L158.774 78.1522Z" fill="#2F2E40"/>
<path d="M142.676 36.6691C141.176 36.7782 139.699 37.1629 138.378 37.8802C137.097 38.5757 136.09 39.8341 135.128 41.2821C132.333 45.4897 127.011 54.2348 127.011 54.2348L124.08 53.1967L116.457 61.2883C116.457 61.2883 128.006 64.9771 130.018 64.1038C132.893 62.8555 136.974 53.8291 136.974 53.8291C135.45 58.0804 134.411 68.1401 134.457 77.6041C134.457 81.4356 159.462 80.7518 159.462 76.9204C158.708 70.5648 158.603 59.1004 159.287 51.3996L165.665 57.8173L159.744 63.6302C158.85 64.2521 162.455 69.4232 163.349 68.8013C163.349 68.8013 173.881 62.0141 174.305 57.7078C174.644 54.2583 169.919 48.4362 165.661 43.9513C161.25 39.3039 155.157 36.5559 148.746 36.4638C146.707 36.4343 144.721 36.52 142.677 36.6687L142.676 36.6691Z" fill="#10ABCF"/>
<path d="M162.042 72.6761C162.153 74.5593 160.679 75.4423 159.074 74.5233C157.3 73.5078 158.675 67.5927 158.675 67.5927C158.675 67.5927 157.38 70.3621 155.843 68.7174C154.307 67.0762 159.882 63.9326 159.882 63.9326L162.049 67.7491C162.049 67.7491 161.935 70.7929 162.042 72.6761Z" fill="white"/>
<path d="M161.715 53.8442L165.664 57.8174L159.743 63.6303C158.849 64.2522 162.454 69.4233 163.348 68.8013C163.348 68.8013 173.881 62.0142 174.304 57.7079C174.411 56.618 174.012 55.2905 173.282 53.8438" fill="#10ABCF"/>
<path d="M142.48 33.9369C143.093 33.2939 133.181 43.7092 101.928 76.5462C101.083 77.4336 99.6755 77.4676 98.7905 76.6242L95.073 73.0914C94.1876 72.248 94.1504 70.8421 94.9985 69.9546C98.152 66.6409 102.638 61.9276 107.213 57.1199C107.223 57.1304 107.401 57.1607 107.416 57.1607C108.851 57.3466 110.478 56.1079 111.418 54.9792C113.199 52.8564 112.917 51.1514 112.925 51.1179C142.698 19.84 138.284 24.4765 138.851 23.8804V23.8772L139.207 23.5078C139.2 23.6 139.197 23.6844 139.194 23.7685C139.114 26.1629 139.391 29.3885 140.432 31.4677V31.4709C140.836 32.3939 141.544 33.3359 142.48 33.9369Z" fill="white"/>
<path d="M155.213 20.317C155.264 20.3441 155.315 20.3748 155.366 20.4018L155.125 20.656C155.092 20.69 152.965 22.9211 153.1 22.7801C152.477 21.9084 151.685 20.9369 150.933 20.1852C153.52 17.4679 153.395 17.6005 153.388 17.6074C153.486 18.6124 154.118 19.6797 155.213 20.3174L155.213 20.317Z" fill="white"/>
<path d="M145.356 17.2882L145 17.664C144.909 17.6741 144.814 17.6911 144.722 17.7081L145.099 17.3116C145.259 17.1431 143.602 18.8853 155.563 6.31641L155.756 6.49947L155.631 6.4926C140.429 22.4657 147.118 15.4377 145.357 17.2882H145.356Z" fill="white"/>
<path d="M158.062 8.69436L157.944 8.68749L157.883 8.75174H157.879V8.75497L148.925 18.1648H148.922L148.684 18.4154C148.623 18.3786 148.687 18.417 148.372 18.2493C159.953 6.07729 157.201 8.97037 157.632 8.51735H157.635L157.696 8.4531L157.682 8.33105C157.716 8.36298 158.028 8.65799 157.994 8.62566V8.62889L158.062 8.69314V8.69436Z" fill="white"/>
<path d="M160.375 10.8935L160.253 10.8866L160.192 10.9509H160.189C160.156 10.9852 158.237 13.005 158.357 12.8781C158.297 12.8741 158.241 12.868 158.137 12.868C158.135 12.8658 158.132 12.8658 158.13 12.868C158.083 12.8623 157.95 12.8644 157.899 12.868C157.932 12.834 160.081 10.5734 159.944 10.7169L160.005 10.6526L159.992 10.5273C160.026 10.5601 160.409 10.9258 160.375 10.8931L160.375 10.8935Z" fill="white"/>
<path d="M162.495 12.9082C162.463 12.9422 161.157 14.3174 161.189 14.2835C161.152 14.2394 161.115 14.1986 161.074 14.1549C161.106 14.121 162.332 12.8331 162.254 12.9151L162.315 12.8509L162.302 12.7256L162.495 12.9087V12.9082Z" fill="white"/>
<path d="M98.4118 66.375L94.9982 69.9551C94.1525 70.8421 94.1869 72.246 95.0751 73.091L98.7894 76.6234C99.6776 77.468 101.083 77.4337 101.929 76.5466L105.343 72.9666L98.4122 66.375H98.4118Z" fill="#F992C7"/>
<path d="M168.037 0.169207C165.799 5.31483 172.123 -9.22288 162.495 12.909L162.302 12.7259C162.298 12.692 162.096 10.8908 162.108 11.0052C162.074 11.0032 160.26 10.886 160.375 10.8933C160.341 10.8605 159.958 10.4948 159.992 10.5275C159.988 10.4936 159.786 8.69244 159.798 8.80681C159.631 8.7959 157.955 8.688 158.062 8.69487L157.994 8.63061V8.62738C157.96 8.59546 157.648 8.30045 157.682 8.33278C157.678 8.29883 157.472 6.49445 157.485 6.60881C157.451 6.60679 155.64 6.49324 155.755 6.50051L155.562 6.31745C171.147 -1.36321 167.462 0.452493 168.037 0.169611L168.037 0.169207Z" fill="#FFD857"/>
<path d="M139.417 27.9073C96.0744 73.4541 102.093 67.1297 101.304 67.9589L101.182 67.8437C101.148 67.8114 98.8479 65.6255 98.994 65.7638C99.3885 65.3487 96.8963 67.9682 107.216 57.1225C107.265 57.1225 108.28 57.4947 109.956 56.33C110.384 56.0411 110.938 55.5541 111.418 54.9787C112.277 53.9542 113.009 52.5701 112.931 51.1646C112.931 51.1509 112.928 51.1375 112.924 51.1238C142.696 19.8395 138.284 24.4751 138.851 23.8794V23.8762L139.207 23.5068C139.139 24.351 139.162 26.1227 139.417 27.9069V27.9073Z" fill="white"/>
<path d="M157.872 8.51521C157.924 8.46065 157.295 9.12179 148.528 18.3349C147.933 18.0011 147.161 17.7339 146.394 17.6438C145.936 17.5897 145.475 17.5965 145 17.664H144.997C144.906 17.6778 144.814 17.6911 144.722 17.7081L145.099 17.3116L155.563 6.31641C155.597 6.31843 157.772 6.45704 157.638 6.44855C157.672 6.74922 157.886 8.63442 157.872 8.5148L157.872 8.51521Z" fill="white"/>
<path d="M140.431 31.4685C97.4923 76.5906 104.373 69.3609 103.613 70.1583L101.304 67.9599C102.533 66.6687 93.4968 76.1638 139.417 27.9082C139.633 29.4192 140.062 30.7306 140.431 31.4685Z" fill="#EEECF0"/>
<path d="M160.182 10.7101C160.149 10.7445 158.097 12.9024 158.13 12.8677C157.997 12.8511 157.271 12.8657 156.519 13.1219C155.42 13.4912 154.497 14.2195 153.938 15.1578C153.908 15.2051 153.877 15.256 153.85 15.3033C153.829 15.2896 153.806 15.273 153.785 15.2592C153.477 15.9301 153.256 16.841 153.331 17.6641L153.388 17.6064C153.395 17.6743 153.405 17.7454 153.419 17.8165V17.8197C153.386 17.8537 151.143 20.2113 151.285 20.0622V20.0654L151.051 20.3059C150.295 19.4819 149.101 18.6013 148.528 18.3346C148.56 18.3006 158.507 7.84855 157.872 8.51494C158.57 8.55939 160.04 8.65274 159.951 8.64708C159.955 8.68184 160.197 10.8435 160.182 10.7101Z" fill="#EEECF0"/>
<path d="M142.48 33.9376L142.484 33.9408C102.319 76.1477 106.448 71.8086 105.927 72.3566C105.844 72.2774 103.596 70.1368 103.739 70.2734L103.617 70.1582C109.036 64.4638 134.681 37.5153 140.432 31.4717C140.837 32.3947 141.545 33.3367 142.481 33.9376H142.48Z" fill="white"/>
<path d="M155.213 20.3177C155.264 20.3448 155.315 20.3755 155.366 20.4026L155.125 20.6568C155.093 20.6907 152.965 22.9218 153.1 22.7808C152.229 21.5624 151.272 20.5105 151.055 20.3117L151.286 20.0676V20.0643C151.318 20.0304 153.561 17.6764 153.419 17.8251C153.658 18.9607 154.298 19.7855 155.213 20.3181V20.3177Z" fill="white"/>
<path d="M162.495 12.909C162.462 12.9438 161.104 14.3744 161.189 14.2842C160.399 13.3511 159.215 12.8682 158.137 12.8682C158.169 12.8343 160.2 10.6997 160.07 10.8359L160.185 10.7139C160.27 10.7191 162.356 10.8521 162.261 10.846C162.265 10.8808 162.511 13.0424 162.495 12.909Z" fill="white"/>
<path d="M99.2918 65.4535L97.6523 67.1729L104.584 73.7649L106.223 72.0456L99.2918 65.4535Z" fill="white"/>
<path d="M157.279 21.0687C157.031 21.0788 156.79 21.0719 156.563 21.0448C156.075 18.9143 155.061 17.3629 154.134 16.3296C153.938 16.1093 153.731 15.8992 153.517 15.6996C153.585 15.4995 153.663 15.31 153.751 15.1338C155.396 16.2245 157.092 17.6066 157.278 21.0683L157.279 21.0687Z" fill="white"/>
<path d="M152.834 27.4238C152.834 27.4238 151.157 34.5104 152.117 36.5419C152.117 36.5419 151.595 41.9474 147.05 41.8637C142.907 41.7878 145.169 36.6539 145.169 36.6539C145.169 36.6539 145.422 34.0417 144.942 30.3605" fill="white"/>
<path d="M149.518 33.1347C148.364 34.1996 146.788 34.9504 144.657 34.8001C138.3 34.3758 138.683 23.7147 139.386 20.5396C144.468 16.1161 148.482 16.0414 153.343 22.8253C153.724 23.3571 155.091 23.0128 155.417 24.344C155.485 24.6216 156.117 27.258 152.436 27.8824" fill="white"/>
<path d="M149.518 33.1347C148.364 34.1996 146.788 34.9504 144.657 34.8001C138.3 34.3758 138.683 23.7147 139.386 20.5396C144.468 16.1161 148.482 16.0414 153.343 22.8253C153.724 23.3571 155.091 23.0128 155.417 24.344C155.485 24.6216 156.117 27.258 152.436 27.8824" fill="white"/>
<path d="M153.343 24C153.343 24 154.488 24.063 154.414 25.3995L153.343 24Z" fill="white"/>
<g opacity="0.5">
<path d="M146.696 28.3271C146.376 28.5053 146.011 28.4499 145.872 28.2038C145.737 27.9589 145.884 27.6175 146.2 27.438C146.517 27.2586 146.885 27.3152 147.024 27.5613C147.16 27.8062 147.012 28.1477 146.696 28.3271Z" fill="#FCAD88"/>
</g>
<g opacity="0.5">
<path d="M140.63 28.6877C140.928 28.8999 141.297 28.8853 141.463 28.6558C141.624 28.4271 141.516 28.0714 141.221 27.8585C140.926 27.6455 140.553 27.6608 140.388 27.8904C140.227 28.1191 140.336 28.4747 140.63 28.6877Z" fill="#FCAD88"/>
</g>
<path d="M144.502 24.1197C145.202 23.4412 146.091 23.9285 146.637 24.4709L144.502 24.1197Z" fill="white"/>
<path d="M140.547 23.9019C141.247 23.2234 142.136 23.7108 142.682 24.2531L140.547 23.9019Z" fill="white"/>
<path d="M112.465 49.8374C113.606 50.7701 113.198 53.1229 111.55 55.0877C109.905 57.063 107.64 57.8926 106.499 56.9599C105.348 56.0272 106.251 54.0737 107.899 52.1089C109.544 50.1336 111.319 48.8998 112.465 49.8374H112.465Z" fill="white"/>
<path d="M163.365 64.5249C163.276 64.4962 163.227 64.4009 163.256 64.3116C163.566 63.3542 164.318 62.6094 165.172 62.415C165.702 62.2942 166.24 62.3742 166.694 62.1697C167.261 61.9139 167.706 61.1663 167.826 60.2647C167.939 59.4137 167.797 58.546 167.659 57.7067C167.644 57.6145 167.706 57.5272 167.799 57.5119C167.892 57.4973 167.979 57.5592 167.994 57.6517C168.129 58.4753 168.283 59.4084 168.162 60.3092C168.055 61.117 167.649 62.1107 166.833 62.4781C166.3 62.7177 165.755 62.6292 165.248 62.7448C164.508 62.9133 163.852 63.5692 163.579 64.4154C163.55 64.5047 163.454 64.5532 163.365 64.5245V64.5249Z" fill="white"/>
<path d="M151.245 77.2511C149.94 77.0996 148.693 76.7314 147.412 76.5609C145.885 76.3572 144.648 76.516 143.735 77.0313C143.654 77.0769 143.55 77.0487 143.504 76.9674C143.458 76.8862 143.487 76.7828 143.568 76.7367C144.547 76.1838 145.856 76.0121 147.456 76.2251C148.744 76.3964 150.009 76.767 151.284 76.9145C152.332 77.0357 153.813 77.0321 154.919 76.3233C155.88 75.7082 156.364 74.6256 156.125 73.6294C156.103 73.5385 156.159 73.4472 156.25 73.4253C156.343 73.4043 156.433 73.4597 156.455 73.5506C156.727 74.687 156.184 75.9159 155.102 76.6086C154.002 77.3134 152.538 77.4006 151.244 77.2511H151.245Z" fill="white"/>
<path d="M143.999 49.6977C142.665 49.4928 141.858 48.5144 141.323 47.8666C141.025 47.5057 140.742 47.1938 140.29 47.0349C139.829 46.8725 139.184 46.9856 139.056 47.2491C139.015 47.3332 138.913 47.3683 138.829 47.3275C138.745 47.2867 138.71 47.1853 138.751 47.1012C138.976 46.6365 139.825 46.512 140.402 46.7153C140.936 46.9032 141.266 47.2649 141.584 47.6512C142.248 48.4554 142.936 49.1917 144.05 49.3631C144.754 49.4714 145.571 49.319 146.29 48.9456C146.944 48.6057 147.447 48.139 147.935 47.6876C148.003 47.6237 148.11 47.6282 148.174 47.6969C148.238 47.7652 148.234 47.8727 148.165 47.9361C147.661 48.4029 147.14 48.8854 146.446 49.2459C145.63 49.6702 144.737 49.8112 143.998 49.6981L143.999 49.6977Z" fill="white"/>
<path d="M168.006 53.2158C167.004 52.7851 166.443 51.7618 166.149 50.9799C165.816 50.0912 165.644 49.1294 165.27 48.2796C164.21 45.8726 161.368 44.44 158.798 45.0163C158.706 45.0365 158.616 44.9795 158.596 44.8882C158.575 44.7969 158.632 44.7064 158.724 44.6857C161.447 44.0747 164.457 45.5926 165.58 48.143C165.97 49.0292 166.134 49.9736 166.467 50.8603C166.737 51.5812 167.248 52.5208 168.14 52.9043C168.226 52.9415 168.266 53.0409 168.229 53.1269C168.192 53.2122 168.093 53.2526 168.006 53.2154L168.006 53.2158Z" fill="white"/>
<path d="M129.563 57.2816C129.521 57.1983 129.554 57.0965 129.638 57.0537C130.309 56.711 130.539 55.8425 130.616 55.3556C130.729 54.6391 130.715 53.8717 130.992 53.1636C131.514 51.8264 132.889 51.0946 134.252 50.4601C134.337 50.4209 134.438 50.4573 134.477 50.5421C134.517 50.627 134.48 50.7276 134.395 50.7672C133.094 51.373 131.785 52.0665 131.308 53.2869C131.051 53.9428 131.066 54.6827 130.951 55.4085C130.845 56.0814 130.557 56.9652 129.792 57.3555C129.709 57.398 129.606 57.3648 129.564 57.2816H129.563Z" fill="white"/>
<path d="M68.7319 13.4462C70.3514 13.4462 71.6689 12.1321 71.6689 10.5164C71.6689 8.90073 70.3514 7.58008 68.7319 7.58008C67.1125 7.58008 65.7917 8.8971 65.7917 10.5164C65.7917 12.1357 67.1109 13.4462 68.7319 13.4462ZM68.7319 7.91873C70.1644 7.91873 71.3298 9.0838 71.3298 10.516C71.3298 11.9482 70.1644 13.1072 68.7319 13.1072C67.2995 13.1072 66.1313 11.9449 66.1313 10.516C66.1313 9.08703 67.2979 7.91873 68.7319 7.91873Z" fill="#2F304C"/>
<path d="M46.825 37.8809C42.3475 37.8809 38.7048 41.5187 38.7048 45.9903C38.7048 50.4618 42.3475 54.0973 46.825 54.0973C51.3024 54.0973 54.9427 50.4606 54.9427 45.9903C54.9427 41.5199 51.3012 37.8809 46.825 37.8809ZM46.825 53.7586C42.5345 53.7586 39.0439 50.2739 39.0439 45.9903C39.0439 41.7066 42.5345 38.2195 46.825 38.2195C51.1155 38.2195 54.6036 41.7054 54.6036 45.9903C54.6036 50.2751 51.1143 53.7586 46.825 53.7586Z" fill="#2F304C"/>
<path d="M49.1545 42.9395L45.199 46.908L44.4896 46.202C44.0959 45.81 43.4586 45.8108 43.0653 46.2044C42.6724 46.5984 42.6732 47.2349 43.0681 47.6273L44.4921 49.0429C44.8854 49.4341 45.5239 49.4325 45.916 49.0401L50.5829 44.36C50.9758 43.9656 50.9746 43.3291 50.5796 42.9367C50.1855 42.5447 49.5478 42.5459 49.1545 42.9399V42.9395ZM50.3421 44.1208L45.6753 48.8008C45.4159 49.0615 44.9922 49.0623 44.7312 48.8029L43.3077 47.3872C43.0458 47.1274 43.045 46.7051 43.3056 46.4436C43.5658 46.183 43.9887 46.1813 44.2505 46.442L45.08 47.268C45.1614 47.3488 45.2674 47.3206 45.32 47.2676L49.3952 43.1792C49.6554 42.9181 50.0795 42.9177 50.3409 43.1771C50.6023 43.4374 50.6039 43.8597 50.3429 44.1212L50.3421 44.1208Z" fill="#2F304C"/>
<path d="M80.3551 40.3396H98.5862C98.6801 40.3396 98.7558 40.2641 98.7558 40.1703C98.7558 40.0765 98.6801 40.001 98.5862 40.001H80.3551C80.2612 40.001 80.1855 40.0765 80.1855 40.1703C80.1855 40.2641 80.2612 40.3396 80.3551 40.3396Z" fill="#2F304C"/>
<path d="M58.4093 40.3396H74.6997C74.7936 40.3396 74.8693 40.2641 74.8693 40.1703C74.8693 40.0765 74.7936 40.001 74.6997 40.001H58.4093C58.3154 40.001 58.2397 40.0765 58.2397 40.1703C58.2397 40.2641 58.3154 40.3396 58.4093 40.3396Z" fill="#2F304C"/>
<path d="M98.5863 45.8193H93.3522C93.2583 45.8193 93.1826 45.8949 93.1826 45.9887C93.1826 46.0824 93.2583 46.158 93.3522 46.158H98.5863C98.6802 46.158 98.7559 46.0824 98.7559 45.9887C98.7559 45.8949 98.6802 45.8193 98.5863 45.8193Z" fill="#2F304C"/>
<path d="M75.1888 46.158H89.8174C89.9113 46.158 89.9869 46.0824 89.9869 45.9887C89.9869 45.8949 89.9113 45.8193 89.8174 45.8193H75.1888C75.095 45.8193 75.0193 45.8949 75.0193 45.9887C75.0193 46.0824 75.095 46.158 75.1888 46.158Z" fill="#2F304C"/>
<path d="M58.4093 46.158H69.8597C69.9536 46.158 70.0293 46.0824 70.0293 45.9887C70.0293 45.8949 69.9536 45.8193 69.8597 45.8193H58.4093C58.3154 45.8193 58.2397 45.8949 58.2397 45.9887C58.2397 46.0824 58.3154 46.158 58.4093 46.158Z" fill="#2F304C"/>
<path d="M58.4093 51.9773H88.3515C88.4453 51.9773 88.521 51.9017 88.521 51.808C88.521 51.7142 88.4453 51.6387 88.3515 51.6387H58.4093C58.3154 51.6387 58.2397 51.7142 58.2397 51.808C58.2397 51.9017 58.3154 51.9773 58.4093 51.9773Z" fill="#2F304C"/>
<path d="M46.825 62.2783C42.3475 62.2783 38.7048 65.9162 38.7048 70.3877C38.7048 74.8593 42.3475 78.4943 46.825 78.4943C51.3024 78.4943 54.9427 74.8577 54.9427 70.3877C54.9427 65.9178 51.3012 62.2783 46.825 62.2783ZM46.825 78.1557C42.5345 78.1557 39.0439 74.671 39.0439 70.3877C39.0439 66.1045 42.5345 62.617 46.825 62.617C51.1155 62.617 54.6036 66.1029 54.6036 70.3877C54.6036 74.6726 51.1143 78.1557 46.825 78.1557Z" fill="#2F304C"/>
<path d="M49.1546 67.3364L45.1991 71.3048L44.4897 70.5989C44.096 70.2069 43.4587 70.2077 43.0654 70.6013C42.6724 70.9953 42.6737 71.6318 43.0682 72.0242L44.4922 73.4398C44.8851 73.8306 45.524 73.8294 45.9161 73.4366L50.583 68.7565C50.9759 68.3621 50.9747 67.7256 50.5797 67.3332C50.1856 66.9412 49.5479 66.9424 49.1546 67.3364ZM50.3422 68.5172L45.6754 73.1973C45.416 73.4576 44.9923 73.4588 44.7313 73.1993L43.3073 71.7837C43.0455 71.5239 43.0447 71.1016 43.3053 70.8401C43.5655 70.5795 43.9884 70.5778 44.2502 70.8385L45.0797 71.6645C45.1428 71.7275 45.2517 71.7324 45.3197 71.6641L49.3949 67.5756C49.6551 67.3146 50.0792 67.3142 50.3406 67.5736C50.602 67.8339 50.6036 68.2562 50.3426 68.5176L50.3422 68.5172Z" fill="#2F304C"/>
<path d="M98.5862 64.3984H80.3551C80.2612 64.3984 80.1855 64.474 80.1855 64.5678C80.1855 64.6615 80.2612 64.7371 80.3551 64.7371H98.5862C98.6801 64.7371 98.7558 64.6615 98.7558 64.5678C98.7558 64.474 98.6801 64.3984 98.5862 64.3984Z" fill="#2F304C"/>
<path d="M58.4093 64.7371H74.6997C74.7936 64.7371 74.8693 64.6615 74.8693 64.5678C74.8693 64.474 74.7936 64.3984 74.6997 64.3984H58.4093C58.3154 64.3984 58.2397 64.474 58.2397 64.5678C58.2397 64.6615 58.3154 64.7371 58.4093 64.7371Z" fill="#2F304C"/>
<path d="M75.1888 70.2168C75.095 70.2168 75.0193 70.2924 75.0193 70.3861C75.0193 70.4799 75.095 70.5554 75.1888 70.5554H89.8174C89.9113 70.5554 89.9869 70.4799 89.9869 70.3861C89.9869 70.2924 89.9113 70.2168 89.8174 70.2168H75.1888Z" fill="#2F304C"/>
<path d="M58.4093 70.5554H69.8597C69.9536 70.5554 70.0293 70.4799 70.0293 70.3861C70.0293 70.2924 69.9536 70.2168 69.8597 70.2168H58.4093C58.3154 70.2168 58.2397 70.2924 58.2397 70.3861C58.2397 70.4799 58.3154 70.5554 58.4093 70.5554Z" fill="#2F304C"/>
<path d="M58.4093 76.3738H88.3515C88.4453 76.3738 88.521 76.2982 88.521 76.2045C88.521 76.1107 88.4453 76.0352 88.3515 76.0352H58.4093C58.3154 76.0352 58.2397 76.1107 58.2397 76.2045C58.2397 76.2982 58.3154 76.3738 58.4093 76.3738Z" fill="#2F304C"/>
<path d="M46.825 86.6748C42.3475 86.6748 38.7048 90.3127 38.7048 94.7842C38.7048 99.2558 42.3475 102.891 46.825 102.891C51.3024 102.891 54.9427 99.2546 54.9427 94.7842C54.9427 90.3139 51.3012 86.6748 46.825 86.6748ZM46.825 102.553C42.5345 102.553 39.0439 99.0679 39.0439 94.7842C39.0439 90.5006 42.5345 87.0135 46.825 87.0135C51.1155 87.0135 54.6036 90.4994 54.6036 94.7842C54.6036 99.0691 51.1143 102.553 46.825 102.553Z" fill="#2F304C"/>
<path d="M98.5862 88.7959H80.3551C80.2612 88.7959 80.1855 88.8715 80.1855 88.9652C80.1855 89.059 80.2612 89.1345 80.3551 89.1345H98.5862C98.6801 89.1345 98.7558 89.059 98.7558 88.9652C98.7558 88.8715 98.6801 88.7959 98.5862 88.7959Z" fill="#2F304C"/>
<path d="M58.4093 89.1345H74.6997C74.7936 89.1345 74.8693 89.059 74.8693 88.9652C74.8693 88.8715 74.7936 88.7959 74.6997 88.7959H58.4093C58.3154 88.7959 58.2397 88.8715 58.2397 88.9652C58.2397 89.059 58.3154 89.1345 58.4093 89.1345Z" fill="#2F304C"/>
<path d="M98.5863 94.6143H93.3522C93.2583 94.6143 93.1826 94.6898 93.1826 94.7836C93.1826 94.8773 93.2583 94.9529 93.3522 94.9529H98.5863C98.6802 94.9529 98.7559 94.8773 98.7559 94.7836C98.7559 94.6898 98.6802 94.6143 98.5863 94.6143Z" fill="#2F304C"/>
<path d="M89.8174 94.6143H75.1888C75.095 94.6143 75.0193 94.6898 75.0193 94.7836C75.0193 94.8773 75.095 94.9529 75.1888 94.9529H89.8174C89.9113 94.9529 89.9869 94.8773 89.9869 94.7836C89.9869 94.6898 89.9113 94.6143 89.8174 94.6143Z" fill="#2F304C"/>
<path d="M58.4093 94.9529H69.8597C69.9536 94.9529 70.0293 94.8773 70.0293 94.7836C70.0293 94.6898 69.9536 94.6143 69.8597 94.6143H58.4093C58.3154 94.6143 58.2397 94.6898 58.2397 94.7836C58.2397 94.8773 58.3154 94.9529 58.4093 94.9529Z" fill="#2F304C"/>
<path d="M88.351 100.433H58.4088C58.3149 100.433 58.2393 100.508 58.2393 100.602C58.2393 100.696 58.3149 100.771 58.4088 100.771H88.351C88.4448 100.771 88.5205 100.696 88.5205 100.602C88.5205 100.508 88.4448 100.433 88.351 100.433Z" fill="#2F304C"/>
<path d="M60.244 21.7605H77.2171C77.311 21.7605 77.3867 21.685 77.3867 21.5912C77.3867 21.4974 77.311 21.4219 77.2171 21.4219H60.244C60.1501 21.4219 60.0745 21.4974 60.0745 21.5912C60.0745 21.685 60.1501 21.7605 60.244 21.7605Z" fill="#2F304C"/>
<path d="M174.331 135.661H170.192C170.263 135.564 170.306 135.446 170.308 135.315C170.327 134.537 169.987 133.941 169.3 133.544C168.65 133.166 162.889 129.981 162.804 129.994V128.867C163.506 128.782 163.506 128.674 163.506 128.569L158.809 78.1251C159.331 77.7695 159.629 77.363 159.629 76.9023C159.555 76.2723 159.487 75.5946 159.426 74.8801C160.898 75.4616 162.303 74.6057 162.21 72.6647C162.136 71.374 162.17 69.511 162.197 68.495C162.204 68.4983 162.21 68.5051 162.217 68.512C162.261 68.5492 162.302 68.5864 162.346 68.6203C162.387 68.6543 162.427 68.6882 162.471 68.7185C162.594 68.8098 162.709 68.881 162.817 68.9319C162.834 68.942 162.855 68.9489 162.872 68.9557C162.899 68.9658 162.923 68.9759 162.946 68.9828C162.973 68.9929 163 68.9998 163.027 69.003C163.048 69.0099 163.065 69.0131 163.085 69.0167C163.115 69.02 163.146 69.0236 163.173 69.0236C163.275 69.0236 163.363 68.9965 163.441 68.9424C163.872 68.6648 174.047 62.0627 174.471 57.7237C174.454 57.6126 174.711 56.2907 173.433 53.7674C173.426 53.7536 173.416 53.7403 173.406 53.7302C171.785 50.5429 168.617 46.8202 165.785 43.8358C163.716 41.6564 161.272 39.8989 158.612 38.6296C158.622 38.4841 158.615 38.4271 158.615 38.3923C158.679 37.9248 158.584 37.4576 158.32 37.0171C157.621 35.8452 157.136 34.7916 156.776 33.8024C156.732 33.6803 156.691 33.5652 156.654 33.4569C156.624 33.372 156.597 33.2843 156.569 33.1994C156.515 33.0333 156.468 32.8778 156.427 32.7355C156.122 31.6957 155.932 30.7032 155.735 29.6868C155.674 29.3854 155.616 29.0807 155.555 28.7756C155.55 28.7501 155.541 28.725 155.535 28.6996C156.26 27.7968 156.692 26.4369 156.817 24.6325C156.905 23.3365 156.804 22.1856 156.585 21.1636C156.868 21.2137 157.16 21.242 157.458 21.242C157.539 21.242 157.621 21.2388 157.702 21.2351C158.18 21.2182 158.669 21.1268 159.157 20.9676C161.633 20.1311 162.973 17.6922 162.203 15.4122C162.047 14.9547 161.82 14.5349 161.531 14.1655C162.685 12.9459 162.621 13.0291 162.643 12.9835C162.647 12.9802 162.65 12.9802 162.65 12.9766V12.9734L168.194 0.233563C168.261 0.0747447 168.085 -0.0440658 167.962 0.0157436C166.743 0.616262 172.486 -2.21418 155.495 6.16115C155.493 6.16331 155.49 6.16439 155.488 6.16439L155.485 6.16762C155.478 6.17085 155.475 6.17449 155.468 6.17772C155.466 6.17772 155.465 6.1788 155.465 6.18096C155.431 6.19793 153.248 8.50706 148.78 13.2033C148.481 13.15 148.185 13.1136 147.894 13.1011C145.55 12.996 140.585 13.5888 138.519 16.5595C137.328 18.2701 137.291 20.4786 138.4 23.0969C138.402 23.1078 138.47 23.4153 138.591 23.9104L113.166 50.6258C113.053 50.2463 112.85 49.9347 112.572 49.7044C111.971 49.2134 111.195 49.2267 110.296 49.7214V22.8092C110.296 19.2998 107.437 16.4443 103.923 16.4443H81.5878C81.4757 15.411 80.6008 14.6084 79.539 14.6084H75.8454C74.8957 14.6084 74.1224 13.8361 74.1224 12.8845V10.8623C74.1224 7.95301 71.7677 5.44748 68.6446 5.48305C65.721 5.53033 63.3396 8.00999 63.3396 11.0077V12.8845C63.3396 13.8361 62.5663 14.6084 61.6166 14.6084H57.923C56.8579 14.6084 55.9863 15.4114 55.8742 16.4443H34.1699C30.6559 16.4443 27.7967 19.2998 27.7967 22.8092V108.661H26.9352C26.8437 108.661 26.7656 108.735 26.7656 108.83V110.094C26.7656 111.269 27.1456 112.36 27.7967 113.247V116.096C27.7967 119.605 30.6559 122.461 34.1699 122.461H103.922C107.436 122.461 110.295 119.605 110.295 116.096V68.0097L116.506 61.4824C117.73 61.8687 128.116 65.1138 130.083 64.2599C132.189 63.3417 134.862 58.4947 136.232 55.7609C135.039 60.6624 134.245 69.2932 134.285 77.6022C134.285 78.0629 134.584 78.4557 135.113 78.7879C133.488 130.834 133.433 128.787 133.604 128.883C133.719 128.951 134.065 129.001 134.553 129.042V130.089C133.212 130.813 129.596 132.774 128.275 133.543C127.587 133.939 127.248 134.535 127.266 135.314C127.268 135.445 127.311 135.563 127.382 135.661H15.6288C15.8708 135.434 16.0242 135.114 16.0242 134.757V133.183C16.0242 133.089 15.9485 133.014 15.8546 133.014H15.7446L17.2539 122.076C17.3308 121.518 16.897 121.024 16.3362 121.024H14.5872C15.0125 120.009 15.2901 118.707 15.4168 117.092C15.5795 115.019 18.0353 112.252 18.0624 112.221C18.1097 112.17 18.1166 112.092 18.0826 112.028C18.0486 111.967 17.9811 111.93 17.9098 111.943C16.7635 112.113 15.7389 112.533 14.8337 113.105C15.4746 110.548 17.8726 106.463 17.9034 106.412C17.9406 106.347 17.9305 106.266 17.8831 106.212C17.8321 106.158 17.754 106.141 17.6865 106.168C15.2375 107.241 12.7311 110.93 11.6863 112.6C11.0081 111.323 11.605 108.651 11.6118 108.623C11.6256 108.562 11.605 108.498 11.5609 108.457C11.5135 108.417 11.4488 108.403 11.3913 108.423C9.66507 109.003 8.50817 110.324 7.73853 111.685C6.50718 109.839 4.40097 107.075 2.33198 106.168C2.264 106.141 2.18631 106.158 2.13532 106.212C2.08798 106.266 2.0811 106.347 2.11833 106.412C2.15232 106.469 5.34057 111.906 5.34057 114.162C5.34057 114.219 5.33733 114.277 5.33369 114.331C4.09586 113.156 2.56264 112.218 0.697193 111.943C0.625975 111.93 0.554756 111.967 0.520765 112.028C0.486775 112.092 0.496891 112.17 0.54464 112.221C0.568514 112.252 3.02758 115.019 3.19025 117.092C3.31691 118.707 3.59166 120.009 4.01938 121.024H2.29395C1.71772 121.024 1.2807 121.545 1.38146 122.111L3.31893 133.014H2.77548C2.6816 133.014 2.60593 133.089 2.60593 133.183V134.757C2.60593 135.114 2.75889 135.434 2.99966 135.661H0.670486C0.576607 135.661 0.500938 135.736 0.500938 135.83C0.500938 135.924 0.576607 135.999 0.670486 135.999H174.331C174.424 135.999 174.5 135.924 174.5 135.83C174.5 135.736 174.424 135.661 174.331 135.661V135.661ZM17.4995 112.361C16.8108 113.201 15.2136 115.318 15.0777 117.066C14.9478 118.719 14.6641 120.03 14.2182 121.025H9.52385C9.61813 120.75 9.8411 120.14 10.2073 119.356C10.2854 119.186 10.37 119.007 10.4618 118.821C10.9911 117.774 11.7336 116.524 12.7206 115.392C12.7987 115.301 12.88 115.209 12.9682 115.118V115.115C14.2069 113.778 15.7162 112.742 17.4995 112.361ZM17.3231 106.738C16.6178 107.988 14.8438 111.27 14.4266 113.38C13.8366 113.8 13.2972 114.282 12.812 114.796C12.5373 114.214 12.2014 113.529 11.8793 112.943C12.7712 111.497 15.0643 108.059 17.3231 106.738ZM11.2177 108.848C11.0753 109.62 10.7766 111.666 11.4075 112.798C11.4642 112.903 11.7644 113.387 12.5676 115.064C11.6382 116.104 10.9158 117.252 10.3764 118.262C10.2814 118.438 10.1968 118.607 10.1118 118.773C9.72172 119.563 9.45546 120.23 9.30251 120.643C9.3021 120.642 9.3017 120.641 9.30129 120.64C9.15885 120.254 8.91444 119.644 8.56523 118.926V118.923C8.47378 118.737 8.37869 118.54 8.27024 118.34C7.85628 117.548 7.32052 116.667 6.66256 115.816L6.6658 115.765C6.7532 114.979 7.26792 113.224 7.94773 112.009C8.63645 110.729 9.68085 109.468 11.2173 108.849L11.2177 108.848ZM2.69415 106.738C4.56283 107.829 6.44891 110.366 7.55441 112.032C6.81147 113.462 6.48613 114.874 6.37728 115.457C6.15351 115.186 5.91598 114.918 5.66145 114.661C5.65822 114.566 5.66145 114.471 5.67157 114.373C5.83424 112.493 3.52449 108.208 2.69374 106.738H2.69415ZM3.52854 117.065C3.38934 115.318 1.79542 113.2 1.1067 112.36C3.98903 112.979 6.18264 115.324 7.63575 117.885C7.77818 118.129 7.90727 118.366 8.02259 118.593C8.61217 119.727 8.95693 120.663 9.08197 121.024H4.38802C3.94209 120.03 3.65803 118.718 3.52854 117.065ZM1.71449 122.052C1.65096 121.694 1.92612 121.363 2.29314 121.363H16.3362C16.6918 121.363 16.967 121.677 16.918 122.03L15.4022 133.014H3.66248L1.71449 122.052V122.052ZM3.84336 135.661C3.34766 135.661 2.94422 135.256 2.94422 134.758V133.353H15.6851V134.758C15.6851 135.256 15.2792 135.661 14.7807 135.661H3.84336ZM135.347 129.094C137.713 129.754 140.354 129.443 142.935 129.318V130.455C140.027 130.961 137.063 131.236 134.893 130.049V129.067C135.035 129.077 135.188 129.087 135.347 129.094ZM143.821 135.231L143.274 130.898V128.874C143.396 128.847 143.484 128.82 143.535 128.793C143.654 128.725 143.671 128.633 143.667 128.603L147.836 92.8633L153.382 128.582C153.382 128.687 153.382 128.81 154.335 128.894V130.628L153.754 135.23C153.733 135.384 153.776 135.537 153.867 135.661H143.709C143.799 135.537 143.842 135.384 143.822 135.231H143.821ZM162.465 130.161C160.326 131.213 157.476 130.947 154.674 130.461V129.308C154.708 129.325 157.206 129.433 158.073 129.433C159.473 129.433 160.789 129.321 162.065 128.928C162.214 128.921 162.346 128.911 162.465 128.904V130.161ZM163.16 128.488C163.082 128.508 162.96 128.525 162.804 128.539C162.524 128.576 162.628 128.541 162.465 128.536V128.569C162.411 128.572 162.35 128.575 162.291 128.578C156.879 70.497 157.739 79.7303 157.645 78.718C157.944 78.6028 158.215 78.4775 158.452 78.3454C158.466 78.3385 158.476 78.3316 158.49 78.3284L158.652 80.1069L158.669 80.273L163.16 128.488V128.488ZM159.158 74.3753C159.114 74.3515 159.076 74.3244 159.036 74.2905C157.954 73.4232 158.368 69.985 158.724 68.1697C158.764 67.9697 158.802 67.787 158.839 67.631C158.859 67.5462 158.812 67.4617 158.73 67.431C158.724 67.431 158.713 67.4278 158.707 67.4278C158.656 67.4112 158.561 67.4387 158.52 67.5191C158.517 67.5361 157.855 68.9214 156.984 69.0604C156.641 69.1145 156.302 68.959 155.966 68.6029C155.783 68.4065 155.715 68.1831 155.755 67.922C155.949 66.6664 158.405 65.0418 159.483 64.3686C159.613 64.843 159.877 65.3849 160.012 65.6153C160.233 66.0287 160.508 66.4656 160.806 66.8786C160.827 66.9089 160.852 66.9436 160.879 66.9804C160.991 67.134 161.142 67.3332 161.318 67.5526C161.498 67.7761 161.684 67.9862 161.864 68.1725C161.85 68.7112 161.827 69.6799 161.827 70.6825C161.827 71.3804 161.837 72.0917 161.871 72.6845C161.975 74.3745 160.708 75.2503 159.157 74.3749L159.158 74.3753ZM159.422 51.7783L161.597 53.963L165.423 57.8142L159.646 63.4912C159.616 63.5115 159.592 63.5353 159.568 63.5624C159.536 63.5838 159.503 63.6529 159.487 63.6877C159.485 63.6898 159.484 63.6921 159.484 63.6945C159.467 63.7317 159.456 63.7689 159.45 63.8129C159.446 63.8198 159.443 63.8299 159.446 63.84C159.433 63.8974 159.435 63.935 159.433 63.9992C159.31 64.0736 159.165 64.1653 159.002 64.2668C158.978 59.8902 159.117 55.419 159.422 51.7775L159.422 51.7783ZM97.9664 115.125C96.2831 115.141 94.7923 114.332 93.8693 113.089C93.8693 113.085 93.8661 113.085 93.8661 113.085C92.7096 111.532 92.916 110.21 92.8824 108.831C92.8824 108.736 92.8079 108.661 92.7129 108.661H34.5026V26.3597C34.5026 24.8524 35.7303 23.6263 37.2396 23.6263H48.4359C48.2393 23.7786 48.0527 23.948 47.873 24.1242C46.5535 25.442 45.8279 27.1967 45.8279 29.0629C45.8279 29.1587 45.9125 29.2322 45.9975 29.2322H91.4645C91.5559 29.2322 91.634 29.1542 91.634 29.0629C91.634 26.8677 90.6131 24.9065 89.0224 23.6263H100.222C101.731 23.6263 102.956 24.8524 102.956 26.3597V61.3527L94.8765 69.8395C94.764 69.9575 94.6661 70.084 94.5827 70.2166H93.3522C93.2583 70.2166 93.1826 70.2921 93.1826 70.3859C93.1826 70.4797 93.2583 70.5552 93.3522 70.5552H94.4087C94.0332 71.4431 94.2194 72.5095 94.9579 73.2131L98.6717 76.7459C99.615 77.6463 101.133 77.6232 102.053 76.6647L102.956 75.7194V109.958C102.956 112.78 100.717 115.1 97.9664 115.124V115.125ZM113.267 51.135C113.263 51.0978 113.26 51.0606 113.253 51.0267L138.686 24.3008C138.732 24.4834 138.782 24.6782 138.837 24.8904C138.844 25.8999 138.918 26.9704 139.078 28.0203C139.023 28.0776 101.553 67.4488 101.592 67.408L99.5296 65.4468C107.859 56.6952 106.157 58.4834 107.141 57.4493C108.158 57.6978 109.513 57.1127 110.295 56.4976C110.78 56.1488 111.252 55.7084 111.679 55.1967C112.771 53.8927 113.382 52.338 113.266 51.1354L113.267 51.135ZM159.992 10.5276L160.006 10.6529C159.799 10.8703 158.111 12.6424 158.219 12.5296C156.282 12.4638 154.323 13.5553 153.453 15.3342C153.417 15.4065 153.387 15.4801 153.355 15.5532C153.002 15.2348 152.631 14.941 152.245 14.6771L157.879 8.75599V8.75276H157.882L157.943 8.6885C157.978 8.69052 159.923 8.81499 159.799 8.80691C159.802 8.84086 160.005 10.642 159.992 10.5276ZM124.075 53.0295C124.03 53.0287 123.986 53.0472 123.954 53.0792L116.93 60.5372L106.211 71.8003L104.15 69.8403C115.177 58.2539 129.261 43.4547 140.259 31.8982C140.714 32.767 141.303 33.5348 142.097 34.0933L124.075 53.0299L124.075 53.0295ZM99.0011 66.0016C99.0339 65.9677 99.3289 65.6593 99.2961 65.6933L101.358 67.6545L101.36 67.6565L101.182 67.844C101.124 67.9014 101.121 67.9931 101.165 68.0574C101.172 68.0642 101.179 68.0743 101.189 68.0812V68.0844L103.498 70.2796C103.529 70.3099 103.573 70.3269 103.614 70.3269H103.621C103.727 70.3269 103.77 70.2267 103.916 70.0864L105.978 72.0448C105.94 72.0852 104.481 73.6184 104.574 73.521L97.892 67.1663C97.9244 67.1323 99.0744 65.924 99.0011 66.0012V66.0016ZM101.606 67.8921L103.671 69.8533L103.61 69.9175L101.544 67.9563L101.605 67.8921H101.606ZM103.905 69.6059L101.841 67.6456C101.873 67.6116 103.383 66.0251 103.295 66.1172L139.146 28.4401C139.343 29.5478 139.648 30.6248 140.096 31.5733C139.627 32.0663 141.892 29.6856 103.905 69.6059ZM101.806 76.4315C101.026 77.2478 99.723 77.2785 98.9056 76.4994L95.1917 72.9698C94.5176 72.3301 94.3861 71.342 94.7887 70.556H98.586C98.6798 70.556 98.7555 70.4805 98.7555 70.3867C98.7555 70.2929 98.6798 70.2174 98.586 70.2174H95.0084C95.0465 70.1697 95.0772 70.1188 95.1201 70.0739L97.6573 67.4116L104.339 73.7688L101.805 76.4323L101.806 76.4315ZM133.214 43.9231C130.636 47.9675 127.451 53.1806 126.936 54.0276L124.44 53.1471L133.214 43.9235V43.9231ZM142.389 34.2829C143.053 34.6825 143.81 34.9129 144.644 34.9707C144.787 34.9808 144.926 34.9876 145.065 34.9876C145.061 35.6108 145.041 36.0816 145.024 36.356C144.274 36.3899 143.494 36.4372 142.663 36.4982C141.612 36.5762 140.621 36.7795 139.702 37.1081L142.388 34.2829H142.389ZM145.336 36.6809C145.339 36.6777 145.339 36.674 145.339 36.6708C145.339 36.6639 145.349 36.5524 145.363 36.3422C145.38 36.0577 145.4 35.5902 145.404 34.9872C147.022 34.94 148.44 34.3605 149.633 33.2596C149.701 33.1954 149.705 33.0903 149.644 33.0192C149.579 32.9513 149.471 32.9481 149.403 33.0123C148.097 34.215 146.506 34.7634 144.668 34.6316C142.665 34.4966 141.304 33.3114 140.432 31.4694V31.4678C139.191 28.9901 139.008 24.9041 139.31 22.108C141.961 22.7756 148.315 20.8706 149.623 20.4625C149.632 23.6958 152.173 24.8439 152.2 24.8552C152.32 24.9086 152.457 24.8067 152.435 24.673C152.388 24.3832 153.088 23.6509 153.608 23.2137C153.736 23.2666 153.876 23.3083 154.023 23.3487C154.538 23.4909 155.071 23.64 155.254 24.3852C155.62 25.8922 154.843 27.3046 152.408 27.716C152.316 27.7317 152.254 27.819 152.269 27.9111C152.284 27.994 152.355 28.0522 152.437 28.0522C152.463 28.0522 152.486 28.0453 152.526 28.038C152.269 29.2245 152.047 30.4486 151.88 31.661C151.52 32.8705 150.881 34.0206 150.001 34.9468C148.902 36.105 148.298 37.4669 148.532 39.0454C148.532 39.0523 148.532 39.0555 148.535 39.0591C148.677 39.854 149.11 40.6679 149.465 41.0712V41.0745C148.831 41.4709 148.04 41.7146 147.053 41.6944C146.103 41.6774 145.435 41.3792 145.069 40.8102C144.166 39.3978 145.313 36.7488 145.326 36.7217C145.333 36.7116 145.337 36.6946 145.337 36.6809H145.336ZM161.308 13.9081C160.677 13.2215 159.738 12.7074 158.656 12.5668L160.189 10.9512H160.192L160.253 10.8869C160.287 10.8889 160.67 10.9128 160.636 10.9107C160.822 10.9229 162.193 11.011 162.109 11.0057C162.113 11.0405 162.319 12.8865 162.315 12.8517C162.283 12.8857 161.242 13.9776 161.308 13.9085V13.9081ZM163.896 2.39761L166.007 4.40486L162.59 12.2585L162.431 10.8255C162.421 10.7442 162.353 10.68 162.272 10.6764L160.335 10.5543L160.118 8.62708C160.111 8.54585 160.044 8.48483 159.962 8.47796L158.025 8.35268L157.808 6.42868C157.798 6.34745 157.734 6.28643 157.649 6.27956L156.207 6.18823L163.897 2.39721L163.896 2.39761ZM155.63 6.49334C155.816 6.50506 157.591 6.61498 157.486 6.60851C157.49 6.64327 157.71 8.57818 157.696 8.45452L157.635 8.51877H157.632L151.955 14.4868C151.063 13.9194 150.11 13.5064 149.168 13.2845C149.939 12.4743 146.934 15.6308 155.631 6.49334H155.63ZM112.358 49.9663C112.714 50.2592 112.871 50.6735 112.924 51.1249C112.928 51.1386 112.931 51.1519 112.931 51.1657C113.009 52.5542 112.29 53.9407 111.419 54.9797C110.935 55.56 110.38 56.0454 109.957 56.3311C109.204 56.854 108.098 57.3547 107.22 57.1236H107.216L107.213 57.1203C107.152 57.1102 107.095 57.09 107.037 57.0694H107.033C106.877 57.0153 106.735 56.934 106.606 56.829C106.338 56.6124 106.192 56.3343 106.159 55.9819C106.074 55.0945 106.738 53.7565 108.031 52.2152C108.451 51.7137 109.17 50.9143 109.957 50.3453C110.07 50.2673 110.181 50.1893 110.297 50.1218C110.972 49.7048 111.746 49.4664 112.359 49.9659L112.358 49.9663ZM109.957 22.81V49.9291C109.282 50.3728 108.549 51.0638 107.769 51.9986C106.813 53.1402 105.7 54.7591 105.822 56.0159C105.863 56.4564 106.056 56.8189 106.392 57.0896C106.511 57.1878 106.643 57.2691 106.785 57.3301L103.295 60.9962V26.3597C103.295 24.6661 101.918 23.2876 100.222 23.2876H88.568C87.4487 22.5287 86.0988 22.0818 84.6437 22.0818H82.8187C82.147 22.0818 81.6011 21.5362 81.6011 20.869V16.7838H103.922C107.25 16.7838 109.957 19.4869 109.957 22.81ZM57.923 14.9479H61.6166C62.7529 14.9479 63.6787 14.0233 63.6787 12.8849V11.0081C63.6787 8.19346 65.9104 5.86615 68.6511 5.8221C71.4954 5.78007 73.7829 8.06374 73.7829 10.8623V12.8845C73.7829 14.0224 74.7055 14.9475 75.845 14.9475H79.5386C80.4139 14.9475 81.1362 15.5977 81.2446 16.4447C81.2584 16.5159 81.2616 16.5938 81.2616 16.6682V20.8686C81.2616 21.7221 81.9605 22.42 82.8183 22.42H84.6433C88.2499 22.42 91.2019 25.3074 91.2913 28.8932H46.1703C46.2111 27.1793 46.8995 25.577 48.1138 24.3642C49.3156 23.164 50.9885 22.42 52.8146 22.42H54.6429C55.5011 22.42 56.1996 21.7221 56.1996 20.8686V16.6682C56.1996 16.5938 56.2028 16.5159 56.2165 16.4447C56.325 15.5977 57.0477 14.9475 57.9226 14.9475L57.923 14.9479ZM28.1362 22.81C28.1362 19.4869 30.8429 16.7838 34.1703 16.7838H55.8609V20.869C55.8609 21.5362 55.315 22.0818 54.6433 22.0818H52.815C51.3972 22.0818 50.044 22.5016 48.8907 23.2876H37.24C35.5441 23.2876 34.1635 24.6661 34.1635 26.3597V108.661H28.1362V22.81ZM27.1051 110.094V109.001H92.5429C92.5429 109.049 92.5429 110.146 92.5429 110.098C92.5429 112.344 93.9183 114.327 96.033 115.128H32.1451C29.3805 115.128 27.1047 112.874 27.1047 110.094H27.1051ZM109.957 116.097C109.957 119.42 107.25 122.123 103.922 122.123H34.1699C30.8425 122.123 28.1358 119.42 28.1358 116.097V113.675C29.1227 114.773 30.554 115.467 32.1451 115.467H97.9154C97.9256 115.467 97.9393 115.467 97.9494 115.464H97.9697C100.907 115.436 103.295 112.967 103.295 109.959V75.3573C103.838 74.7883 106.516 71.983 106.348 72.16C106.35 72.1578 106.351 72.1555 106.351 72.1531L109.956 68.3661V116.097H109.957ZM134.625 77.6034C134.578 68.0444 135.632 58.0688 137.135 53.8854C137.136 53.8834 137.135 53.8809 137.136 53.8789L138.686 49.624C138.718 49.5363 138.672 49.4389 138.585 49.407C138.497 49.375 138.399 49.4203 138.367 49.508L136.814 53.771C136.691 54.0398 132.768 62.6078 130.018 63.914C127.874 62.8633 127.174 61.5511 127.682 59.5378C127.705 59.4468 127.65 59.3551 127.559 59.3321C127.468 59.3086 127.376 59.364 127.353 59.4549C126.832 61.5167 127.506 62.9481 129.534 64.0469C127.365 64.3064 120.527 62.3973 116.767 61.2084L124.185 53.4142L126.952 54.393C127.027 54.42 127.112 54.3897 127.156 54.3218C127.203 54.2406 131.576 47.0627 134.448 42.6287L139.139 37.6968C140.214 37.2192 141.408 36.9314 142.687 36.8365C143.487 36.7791 144.244 36.7314 144.966 36.6975C144.746 37.2394 143.881 39.5833 144.783 40.9924C145.214 41.6633 145.973 42.0152 147.045 42.0322C147.083 42.0355 147.117 42.0355 147.154 42.0355C148.195 42.0355 149.029 41.751 149.694 41.3105C152.135 43.6006 157.911 41.4947 158.556 38.9767C161.144 40.2254 163.522 41.9445 165.538 44.0678C168.232 46.9079 174.399 53.6922 174.141 57.5871C172.863 58.0991 171.646 58.0906 170.521 57.5544C170.436 57.514 170.335 57.5499 170.295 57.6344C170.254 57.7188 170.29 57.8199 170.375 57.8603C170.998 58.1577 171.647 58.306 172.315 58.306C172.892 58.306 173.485 58.1884 174.089 57.967C173.277 62.1569 163.358 68.5936 163.251 68.6599C163.177 68.7141 163.038 68.6599 162.959 68.6227C162.932 68.609 162.905 68.5957 162.878 68.5787C162.858 68.5686 162.837 68.5585 162.817 68.5447C162.688 68.4635 162.549 68.3584 162.407 68.2263C162.342 68.1689 162.274 68.1042 162.206 68.0368C162.152 67.9826 162.094 67.9248 162.04 67.8642C161.972 67.7898 161.901 67.7119 161.83 67.6306C161.786 67.5833 161.741 67.5324 161.701 67.4815L161.697 67.4783C161.596 67.3599 161.494 67.2309 161.395 67.0988C161.351 67.0447 161.307 66.9869 161.266 66.9295C160.76 66.2534 159.84 64.8418 159.774 64.0538C159.768 63.9669 159.769 63.8982 159.804 63.8267C159.804 63.8198 159.804 63.8166 159.811 63.8129C159.821 63.796 159.835 63.7826 159.849 63.7689C159.849 63.7349 162.279 61.3745 165.781 57.9359C165.815 57.9055 165.832 57.8615 165.832 57.8174C165.832 57.7734 165.815 57.7293 165.784 57.699L161.836 53.7258L161.833 53.7225L159.411 51.2877C159.411 51.2877 159.411 51.2857 159.41 51.2849L157.393 49.0998C157.33 49.0315 157.223 49.0271 157.154 49.0901C157.085 49.1536 157.08 49.2607 157.144 49.3294L159.11 51.4599C158.779 55.2214 158.631 59.9176 158.662 64.4878C157.424 65.3074 155.602 66.6995 155.419 67.8719C155.365 68.2376 155.463 68.5629 155.718 68.8341C156.135 69.2778 156.576 69.4673 157.037 69.393C157.567 69.3118 158.011 68.8882 158.323 68.4817C158.011 70.2194 157.557 73.8508 158.988 74.6703C159.015 74.6873 159.042 74.7007 159.069 74.7144C159.137 75.4968 159.208 76.2355 159.29 76.9197C159.29 77.2211 159.106 77.5024 158.774 77.7631C158.76 77.7732 158.747 77.7833 158.733 77.7934C158.686 77.8342 158.632 77.8714 158.574 77.9053C158.537 77.9324 158.496 77.9562 158.455 77.9833C158.445 77.9902 158.431 77.997 158.418 78.0035C158.191 78.1389 157.92 78.2678 157.614 78.3862C157.509 78.4303 157.4 78.4711 157.288 78.5082C154.667 79.4498 149.86 79.9885 145.302 79.9885C142.436 79.9885 139.956 79.7853 138.114 79.4296C137.599 79.3282 137.134 79.2195 136.724 79.0979C136.235 78.9524 135.825 78.7932 135.499 78.6202C135.485 78.6133 135.472 78.6064 135.458 78.6C135.333 78.5321 135.224 78.461 135.126 78.3866C134.797 78.1462 134.624 77.8851 134.624 77.6042L134.625 77.6034ZM133.862 128.623L135.446 78.9754C136.114 79.3141 137.036 79.5784 138.115 79.7784C138.783 79.9073 139.512 80.0087 140.279 80.0867C141.639 80.2322 143.121 80.3033 144.597 80.3203C144.831 80.3272 145.068 80.3272 145.302 80.3272C149.067 80.3272 154.334 79.9004 157.319 78.84L161.952 128.597C160.683 128.66 154.533 128.713 153.707 128.481L147.978 91.5806C147.978 91.5806 147.978 91.5774 147.978 91.5758L146.748 84.7312C146.731 84.6391 146.642 84.5793 146.55 84.5947C146.458 84.6112 146.397 84.6993 146.414 84.7915L147.64 91.6093L143.338 128.512C142.489 128.852 136.433 128.816 134.893 128.735V128.691L134.723 128.715L134.71 128.718C134.703 128.718 134.696 128.721 134.693 128.725C134.645 128.722 134.597 128.718 134.553 128.715C134.235 128.688 133.997 128.658 133.861 128.624L133.862 128.623Z" fill="#2F304C"/>
<path d="M13.007 123.866H5.62174C5.26767 123.866 5.00101 124.186 5.06292 124.532L6.10044 130.37C6.11501 130.452 6.18501 130.51 6.26756 130.51H12.5939C12.6789 130.51 12.7505 130.448 12.7618 130.364L13.5695 124.511C13.6168 124.171 13.3518 123.866 13.007 123.866ZM12.4462 130.172H6.4096L5.39675 124.474C5.37207 124.333 5.48011 124.205 5.62174 124.205H13.007C13.1454 124.205 13.2527 124.327 13.2336 124.465L12.4458 130.172L12.4462 130.172Z" fill="#2F304C"/>
<path d="M4.36941 87.602L7.73894 89.3312L7.90606 92.9973C7.93236 93.5671 8.56726 93.8924 9.04475 93.5817L12.1274 91.5829L15.4969 93.3121C16.2617 93.7049 17.1989 93.4043 17.5926 92.6405L22.7827 82.5545C23.1748 81.792 22.8729 80.8532 22.1097 80.4616L10.9822 74.7506C10.217 74.3578 9.27985 74.6585 8.88653 75.4227L3.69648 85.5082C3.30437 86.2708 3.60624 87.2096 4.36941 87.6012V87.602ZM3.99794 85.6638L9.188 75.5783C9.4931 74.985 10.2235 74.7429 10.8272 75.0525L21.9547 80.7631C22.5516 81.0698 22.7879 81.8041 22.4808 82.4002L17.2907 92.4861C16.9844 93.0818 16.252 93.3198 15.6519 93.0119L12.195 91.2374C12.1407 91.2091 12.076 91.2127 12.025 91.2459L8.85983 93.298C8.60166 93.4653 8.25892 93.2895 8.24476 92.982L8.07318 89.2176C8.07035 89.1566 8.03555 89.102 7.98133 89.0746L4.52439 87.3005C3.92753 86.9938 3.69122 86.2595 3.99835 85.6634L3.99794 85.6638Z" fill="#2F304C"/>
<path d="M11.0468 87.3117C11.1528 87.6415 11.5052 87.8286 11.8443 87.7215L16.0329 86.3798C17.3965 85.9421 18.1524 84.476 17.717 83.1101C17.2889 81.7963 15.9277 81.0576 14.6024 81.3873C14.1075 80.1229 12.6998 79.4407 11.3838 79.8598C10.0189 80.2991 9.26508 81.7656 9.70332 83.1283L11.0468 87.3113V87.3117ZM11.487 80.1823C12.6755 79.8032 13.9538 80.4599 14.3337 81.6452C14.3621 81.7341 14.4572 81.7826 14.5466 81.7551C15.7221 81.3809 17.002 82.0125 17.3933 83.2139C17.7721 84.4016 17.1149 85.677 15.9285 86.0569L11.7399 87.399C11.5813 87.4487 11.4182 87.3618 11.3689 87.2086L10.0254 83.0252C9.64424 81.8395 10.2998 80.5646 11.4866 80.1827L11.487 80.1823Z" fill="#2F304C"/>
<path d="M3.99785 23.1458C4.00594 23.1471 4.01403 23.1475 4.02172 23.1475C4.10508 23.1475 4.17751 23.0864 4.18965 23.0016C4.19613 22.9555 4.87432 18.3469 8.09008 13.6754C11.0173 9.42364 16.7019 4.27033 27.1941 3.66577L23.8217 7.19412C23.757 7.26161 23.7598 7.3691 23.8274 7.43376C23.8601 7.46488 23.9022 7.48064 23.9443 7.48064C23.9892 7.48064 24.0337 7.46326 24.0669 7.42811L27.7371 3.58818C27.7371 3.58818 27.7375 3.58697 27.7379 3.58657C27.7545 3.56879 27.7667 3.54737 27.7743 3.52393C27.7768 3.51665 27.7764 3.50898 27.778 3.5013C27.7804 3.48877 27.7845 3.47665 27.7841 3.46372C27.7841 3.45927 27.7816 3.45523 27.7808 3.45078C27.7804 3.44715 27.782 3.44391 27.7812 3.44028C27.78 3.43462 27.776 3.43058 27.7743 3.42492C27.7695 3.40795 27.763 3.39299 27.7537 3.37885C27.7497 3.37279 27.746 3.36754 27.7416 3.36188C27.7282 3.34612 27.712 3.33319 27.6938 3.32349C27.6914 3.32227 27.6898 3.31945 27.6869 3.31823L27.678 3.31419C27.678 3.31419 27.6744 3.31217 27.6728 3.31177L23.2868 1.25441C23.2018 1.2144 23.1006 1.25158 23.0614 1.33563C23.0217 1.4205 23.0581 1.52112 23.1427 1.56073L26.9404 3.34208C16.4615 4.01736 10.7596 9.20137 7.81128 13.4838C4.5506 18.2205 3.86067 22.9078 3.8542 22.9543C3.84125 23.0468 3.90559 23.1325 3.99825 23.1458H3.99785Z" fill="#2F304C"/>
<path d="M147.559 44.8958C149.498 44.8958 151.557 44.3288 153.38 43.1941C153.459 43.1448 153.484 43.0401 153.434 42.9609C153.385 42.8817 153.28 42.8575 153.2 42.9068C149.667 45.106 145.234 45.1116 142.659 42.9213C142.588 42.8607 142.481 42.8692 142.42 42.9403C142.359 43.0114 142.367 43.1185 142.439 43.1791C143.784 44.3232 145.611 44.8958 147.559 44.8958H147.559Z" fill="#2F304C"/>
<path d="M140.174 107.103C140.217 107.106 140.26 107.108 140.303 107.108C140.676 107.108 141.035 106.974 141.325 106.723C141.395 106.661 141.403 106.554 141.342 106.483C141.28 106.413 141.173 106.405 141.102 106.466C140.849 106.686 140.528 106.794 140.202 106.765C139.876 106.738 139.579 106.582 139.365 106.325C138.922 105.788 138.987 104.983 139.51 104.53C139.581 104.468 139.588 104.361 139.527 104.291C139.466 104.22 139.358 104.213 139.288 104.274C138.627 104.847 138.544 105.864 139.104 106.54C139.375 106.868 139.755 107.068 140.174 107.103H140.174Z" fill="#2F304C"/>
<path d="M155.901 107.105C155.933 107.107 155.965 107.107 155.997 107.107C156.381 107.107 156.749 106.965 157.041 106.701C157.692 106.111 157.757 105.093 157.185 104.431C157.124 104.36 157.017 104.352 156.946 104.413C156.875 104.474 156.867 104.581 156.928 104.652C157.381 105.176 157.329 105.983 156.813 106.45C156.566 106.674 156.249 106.785 155.922 106.766C155.595 106.746 155.294 106.595 155.074 106.342C155.013 106.27 154.906 106.263 154.835 106.324C154.764 106.385 154.756 106.492 154.818 106.563C155.097 106.886 155.482 107.079 155.902 107.105H155.901Z" fill="#2F304C"/>
<path d="M153.338 24.0853C153.382 24.0881 154.397 24.1625 154.329 25.3958C154.326 25.4423 154.362 25.4823 154.409 25.4852C154.411 25.4852 154.412 25.4852 154.413 25.4852C154.458 25.4852 154.496 25.4504 154.498 25.4051C154.576 24.0004 153.36 23.9172 153.348 23.9164C153.302 23.9119 153.261 23.9495 153.258 23.996C153.255 24.0425 153.291 24.0825 153.338 24.0853H153.338Z" fill="#2F304C"/>
<path d="M144.413 24.0291C144.363 24.078 144.362 24.1584 144.411 24.2085C144.459 24.259 144.54 24.2602 144.59 24.2113C145.344 23.4819 146.278 24.2946 146.547 24.5613C146.596 24.6106 146.677 24.6106 146.726 24.5613C146.776 24.5116 146.776 24.4312 146.726 24.3819C146.087 23.747 145.145 23.321 144.413 24.0295V24.0291Z" fill="#2F304C"/>
<path d="M145.964 25.5123C145.985 25.1263 145.737 24.8026 145.402 24.784C145.067 24.7654 144.785 25.06 144.764 25.4464C144.743 25.8238 144.991 26.156 145.325 26.1746C145.66 26.1932 145.943 25.8901 145.964 25.5123Z" fill="#2F304C"/>
<path d="M142.593 24.3439C142.642 24.3928 142.722 24.3932 142.773 24.3435C142.822 24.2938 142.822 24.2134 142.772 24.1637C142.134 23.5292 141.19 23.1033 140.459 23.8117C140.409 23.8606 140.407 23.941 140.456 23.9911C140.505 24.0417 140.585 24.0429 140.636 23.994C141.389 23.2641 142.324 24.0772 142.592 24.3439H142.593Z" fill="#2F304C"/>
<path d="M141.447 24.5653C141.112 24.5467 140.83 24.8413 140.809 25.2272C140.788 25.6047 141.036 25.9373 141.37 25.9555C141.705 25.974 141.988 25.671 142.008 25.2931C142.03 24.9072 141.782 24.5831 141.447 24.5649V24.5653Z" fill="#2F304C"/>
<path d="M146.27 30.1388C146.258 30.0661 146.187 30.0188 146.119 30.0341L142.885 30.7022C142.804 30.7187 142.76 30.8072 142.796 30.882C143.228 31.7698 144.161 32.334 145.039 32.1529C145.909 31.9747 146.426 31.1273 146.27 30.1384V30.1388ZM144.988 31.9044C144.292 32.0495 143.521 31.6373 143.103 30.9167L146.036 30.311C146.108 31.103 145.682 31.7622 144.988 31.9044Z" fill="#2F304C"/>
<path d="M146.662 32.2465C146.598 32.2178 146.522 32.2465 146.494 32.3103C146.327 32.6809 145.94 32.8607 145.46 32.7929C145.39 32.7819 145.326 32.8312 145.316 32.9003C145.306 32.9699 145.355 33.0341 145.424 33.0442C145.502 33.0551 145.578 33.0608 145.652 33.0608C146.141 33.0608 146.541 32.8248 146.726 32.4146C146.754 32.3507 146.726 32.2752 146.662 32.2469V32.2465Z" fill="#2F304C"/>
<path d="M143.157 29.2072C143.223 29.1833 143.258 29.1102 143.234 29.0443C143.21 28.9784 143.137 28.9445 143.07 28.9683C142.96 29.0083 142.856 28.9784 142.788 28.9465C142.39 28.7598 142.416 28.2672 142.625 27.8699C142.759 27.6129 142.96 27.3753 143.123 27.1163C143.516 26.4866 143.679 25.7043 143.571 24.9696C143.561 24.9005 143.497 24.8532 143.427 24.8625C143.357 24.8726 143.309 24.9373 143.319 25.0068C143.419 25.6824 143.269 26.4022 142.907 26.9817C142.748 27.2371 142.546 27.4715 142.399 27.7523C142.044 28.4288 142.257 28.978 142.68 29.1764C142.831 29.2472 143.001 29.2637 143.157 29.2072Z" fill="#2F304C"/>
<path d="M131.456 133.908C131.193 133.316 130.792 132.934 130.231 132.742C130.083 132.692 130.159 132.468 130.308 132.518C130.935 132.733 131.382 133.156 131.673 133.812C131.7 133.871 131.673 133.942 131.613 133.968C131.555 133.994 131.484 133.969 131.456 133.908Z" fill="white"/>
<path d="M132.86 133.148C132.597 132.556 132.196 132.175 131.634 131.982C131.487 131.932 131.562 131.708 131.712 131.758C132.339 131.973 132.786 132.397 133.077 133.052C133.104 133.112 133.077 133.182 133.017 133.209C132.959 133.234 132.887 133.209 132.86 133.148Z" fill="white"/>
<path d="M134.235 132.524C134.02 131.893 133.537 131.367 133.005 131.184C132.943 131.163 132.91 131.096 132.931 131.034C132.953 130.972 133.02 130.94 133.082 130.96C133.691 131.169 134.218 131.739 134.46 132.448C134.481 132.51 134.448 132.577 134.386 132.598C134.324 132.619 134.256 132.587 134.235 132.524L134.235 132.524Z" fill="white"/>
<path d="M139.424 135.789C139.362 135.789 139.31 135.741 139.306 135.678L139.304 135.648C139.256 134.865 139.555 134.107 140.147 133.515C140.737 132.925 141.545 132.571 142.424 132.516C142.653 132.502 142.88 132.51 143.118 132.542C143.183 132.55 143.229 132.61 143.22 132.675C143.212 132.74 143.151 132.785 143.087 132.777C142.865 132.748 142.653 132.74 142.438 132.753C141.618 132.804 140.864 133.134 140.315 133.682C139.772 134.226 139.497 134.919 139.541 135.633L139.543 135.663C139.547 135.729 139.497 135.785 139.432 135.789H139.424Z" fill="white"/>
<path d="M165.901 133.812C166.193 133.156 166.64 132.733 167.266 132.518C167.329 132.497 167.396 132.53 167.417 132.592C167.438 132.654 167.406 132.721 167.344 132.742C166.782 132.935 166.382 133.316 166.118 133.908C166.054 134.051 165.837 133.955 165.901 133.812Z" fill="white"/>
<path d="M164.497 133.052C164.789 132.396 165.236 131.974 165.863 131.758C166.013 131.708 166.087 131.932 165.94 131.982C165.379 132.175 164.978 132.556 164.714 133.148C164.65 133.291 164.434 133.195 164.497 133.052Z" fill="white"/>
<path d="M163.115 132.448C163.356 131.739 163.884 131.169 164.493 130.96C164.555 130.94 164.623 130.972 164.644 131.034C164.665 131.096 164.632 131.164 164.57 131.185C164.037 131.367 163.555 131.893 163.34 132.524C163.289 132.673 163.064 132.597 163.115 132.448Z" fill="white"/>
<path d="M158.15 135.789H158.143C158.077 135.785 158.027 135.729 158.031 135.664L158.033 135.634C158.125 134.15 156.825 132.858 155.136 132.754C154.921 132.741 154.709 132.749 154.487 132.778C154.424 132.786 154.362 132.74 154.354 132.676C154.345 132.611 154.391 132.551 154.456 132.543C154.693 132.511 154.92 132.504 155.15 132.517C156.97 132.63 158.37 134.034 158.27 135.648L158.268 135.678C158.264 135.741 158.212 135.789 158.15 135.789H158.15Z" fill="white"/>
<path d="M157.279 21.0687C157.031 21.0788 156.79 21.0719 156.563 21.0448C156.075 18.9143 155.061 17.3629 154.134 16.3296C153.938 16.1093 153.731 15.8992 153.517 15.6996C153.585 15.4995 153.663 15.31 153.751 15.1338C155.396 16.2245 157.092 17.6066 157.278 21.0683L157.279 21.0687Z" fill="white"/>
<path d="M147.663 65.5957C147.341 65.5957 147.019 65.567 146.703 65.5084C146.611 65.4915 146.55 65.403 146.567 65.3112C146.584 65.2191 146.672 65.1572 146.764 65.1754C147.765 65.3597 148.825 65.2296 149.751 64.8085C150.678 64.387 151.483 63.6766 152.385 63.1512C153.047 62.7653 154.335 62.1886 155.52 62.6586C155.607 62.6933 155.649 62.7915 155.615 62.8784C155.58 62.9657 155.481 63.0077 155.395 62.9734C154.343 62.5555 153.165 63.0886 152.556 63.4434C151.661 63.9651 150.86 64.6763 149.891 65.1164C149.196 65.4329 148.429 65.5953 147.664 65.5953L147.663 65.5957Z" fill="white"/>
<path d="M139.292 66.1135C139.226 66.0468 139.227 65.9397 139.293 65.8739C140.005 65.1731 140.055 64.0816 140.021 63.4936C139.97 62.6143 139.716 61.7232 139.621 60.8232C139.418 58.9045 140.081 57.5212 141.971 56.9926C142.061 56.9675 142.155 57.0201 142.18 57.1102C142.206 57.2003 142.153 57.2936 142.062 57.3191C140.33 57.8032 139.774 59.0435 139.958 60.7876C140.053 61.6799 140.307 62.5601 140.359 63.4742C140.424 64.5888 140.13 65.5263 139.532 66.1151C139.465 66.181 139.357 66.1798 139.292 66.1135Z" fill="white"/>
<path d="M137.552 72.3776C137.467 72.3776 137.393 72.3137 137.384 72.2272C137.291 71.4016 137.775 70.559 138.537 70.2232C139.186 69.9371 139.993 69.9945 141.003 70.3974C141.723 70.6847 142.461 71.0787 143.227 71.1321C143.944 71.1834 144.782 70.8185 144.941 70.123C144.962 70.0317 145.051 69.9751 145.144 69.9953C145.235 70.0163 145.292 70.1068 145.272 70.1982C145.073 71.0707 144.067 71.5293 143.204 71.4703C142.371 71.4121 141.62 71.0084 140.877 70.7122C139.956 70.3445 139.235 70.2855 138.674 70.5336C138.055 70.8064 137.646 71.5184 137.721 72.1897C137.732 72.2826 137.665 72.3667 137.571 72.3772C137.565 72.378 137.559 72.378 137.552 72.378L137.552 72.3776Z" fill="white"/>
<path d="M146.738 53.3896C146.652 53.3896 146.578 53.325 146.569 53.2377C146.559 53.1448 146.627 53.0615 146.72 53.0518C147.764 52.9443 148.844 52.8328 149.863 52.5362C150.999 52.206 151.9 51.6871 152.54 50.9944C153.09 50.4004 153.474 49.6443 153.961 48.969C154.24 48.5831 154.557 48.2178 154.904 47.8831C154.972 47.8185 155.079 47.8205 155.144 47.8876C155.209 47.9551 155.207 48.0622 155.14 48.1272C154.807 48.4473 154.503 48.7973 154.237 49.167C153.754 49.8358 153.369 50.598 152.79 51.224C152.107 51.9627 151.154 52.5131 149.958 52.8611C148.91 53.1662 147.815 53.2789 146.756 53.3884C146.75 53.3888 146.744 53.3892 146.738 53.3892L146.738 53.3896Z" fill="white"/>
<path d="M151.363 71.5979C150.52 71.5979 149.833 71.0265 149.833 70.3242C149.833 69.6218 150.52 69.0508 151.363 69.0508C152.207 69.0508 152.893 69.6222 152.893 70.3242C152.893 71.0261 152.207 71.5979 151.363 71.5979ZM151.363 69.3894C150.707 69.3894 150.173 69.8089 150.173 70.3242C150.173 70.8394 150.707 71.2593 151.363 71.2593C152.02 71.2593 152.554 70.8398 152.554 70.3242C152.554 69.8085 152.02 69.3894 151.363 69.3894Z" fill="white"/>
<path d="M154.246 57.2705C153.775 56.7941 153.934 55.8706 154.602 55.2123C155.281 54.5431 156.188 54.398 156.667 54.883C157.146 55.3675 156.99 56.2715 156.311 56.9412C155.746 57.498 154.789 57.8201 154.246 57.2705ZM154.84 55.4536C154.315 55.9717 154.153 56.6946 154.487 57.0325C154.889 57.4386 155.66 57.1068 156.073 56.6999C156.607 56.1729 156.765 55.4645 156.426 55.121C156.033 54.7238 155.282 55.0184 154.84 55.4536Z" fill="white"/>
<path d="M138.56 76.1022C138.347 75.4762 138.601 74.8219 139.127 74.6437C139.653 74.4635 140.254 74.8288 140.467 75.454C140.669 76.048 140.457 76.7237 139.9 76.9124C139.344 77.1019 138.763 76.6974 138.56 76.1022ZM139.236 74.9642C138.888 75.0826 138.728 75.5441 138.881 75.993C139.051 76.4913 139.484 76.6962 139.791 76.5919C140.098 76.4877 140.316 76.0617 140.146 75.5631C140.007 75.1549 139.615 74.8361 139.236 74.9642Z" fill="white"/>
<path d="M147.256 60.3146C146.544 60.3146 145.965 59.8305 145.965 59.2352C145.965 58.64 146.544 58.1562 147.256 58.1562C147.968 58.1562 148.546 58.6404 148.546 59.2352C148.546 59.8301 147.967 60.3146 147.256 60.3146ZM147.256 58.4953C146.731 58.4953 146.305 58.8275 146.305 59.2357C146.305 59.6438 146.731 59.976 147.256 59.976C147.78 59.976 148.207 59.6438 148.207 59.2357C148.207 58.8275 147.78 58.4953 147.256 58.4953Z" fill="white"/>
<path d="M136.637 43.7024C136.336 43.1891 136.59 42.4791 137.203 42.1199C137.786 41.7784 138.544 41.8556 138.863 42.3987C139.186 42.9495 138.87 43.6458 138.297 43.9812C137.712 44.3243 136.954 44.2419 136.638 43.7024H136.637ZM137.375 42.412C136.923 42.6771 136.723 43.179 136.93 43.5314C137.113 43.8438 137.628 43.9808 138.125 43.6894C138.626 43.3965 138.754 42.8828 138.571 42.57C138.385 42.2536 137.869 42.1227 137.375 42.412H137.375Z" fill="white"/>
<path d="M123.031 61.0478C122.253 61.0478 121.643 60.6134 121.643 60.0589C121.643 59.5045 122.266 59.0664 123.031 59.0664C123.796 59.0664 124.418 59.5117 124.418 60.0589C124.418 60.6061 123.809 61.0478 123.031 61.0478ZM123.031 59.4051C122.463 59.4051 121.983 59.7045 121.983 60.0589C121.983 60.4133 122.463 60.7091 123.031 60.7091C123.599 60.7091 124.079 60.4113 124.079 60.0589C124.079 59.7065 123.599 59.4051 123.031 59.4051Z" fill="white"/>
<path d="M113.389 130.951C112.626 130.951 112.006 130.33 112.006 129.566C112.006 128.803 112.626 128.186 113.389 128.186C114.151 128.186 114.772 128.805 114.772 129.566C114.772 130.328 114.151 130.951 113.389 130.951ZM113.389 128.524C112.813 128.524 112.345 128.992 112.345 129.566C112.345 130.141 112.813 130.612 113.389 130.612C113.965 130.612 114.433 130.143 114.433 129.566C114.433 128.99 113.965 128.524 113.389 128.524Z" fill="#797885"/>
</g>
<defs>
<clipPath id="clip0_2064_9579">
<rect width="174" height="136" fill="white" transform="translate(0.5)"/>
</clipPath>
</defs>
</svg>
