<svg width="22" height="22" viewBox="0 0 22 22" fill="none" xmlns="http://www.w3.org/2000/svg">
<path d="M1.39275 0C1.15598 0 0.928905 0.0965773 0.761482 0.268486C0.594058 0.440394 0.5 0.673552 0.5 0.916667C0.5 1.15978 0.594058 1.39294 0.761482 1.56485C0.928905 1.73676 1.15598 1.83333 1.39275 1.83333H1.83199C2.02584 1.83368 2.21432 1.8988 2.36894 2.01886C2.52356 2.13893 2.63592 2.3074 2.68903 2.49883L5.52084 12.6738C5.68101 13.248 6.0189 13.7531 6.48341 14.1126C6.94793 14.4722 7.51383 14.6667 8.09555 14.6667H16.2535C16.7889 14.6668 17.312 14.5021 17.7554 14.1939C18.1987 13.8858 18.5419 13.4482 18.7407 12.9378L21.3726 6.18017C21.4808 5.9021 21.521 5.60105 21.4897 5.30334C21.4584 5.00563 21.3566 4.72031 21.1931 4.47234C21.0296 4.22437 20.8095 4.02128 20.552 3.88083C20.2944 3.74039 20.0072 3.66686 19.7156 3.66667H4.87092L4.4049 1.99467C4.24515 1.42042 3.90767 0.915175 3.44348 0.55531C2.97929 0.195446 2.41363 0.000521342 1.83199 0H1.39275ZM7.2385 12.1678L5.38158 5.5H19.7156L17.082 12.2577C17.0157 12.4276 16.9013 12.5732 16.7537 12.6758C16.606 12.7784 16.4318 12.8333 16.2535 12.8333H8.09555C7.90169 12.833 7.71321 12.7679 7.55859 12.6478C7.40398 12.5277 7.29162 12.3593 7.2385 12.1678ZM8.53478 22C8.88649 22 9.23476 21.9289 9.55971 21.7907C9.88465 21.6525 10.1799 21.4499 10.4286 21.1945C10.6773 20.9392 10.8746 20.636 11.0092 20.3024C11.1438 19.9687 11.213 19.6111 11.213 19.25C11.213 18.8889 11.1438 18.5313 11.0092 18.1976C10.8746 17.864 10.6773 17.5608 10.4286 17.3055C10.1799 17.0501 9.88465 16.8475 9.55971 16.7093C9.23476 16.5711 8.88649 16.5 8.53478 16.5C7.82446 16.5 7.14323 16.7897 6.64096 17.3055C6.13869 17.8212 5.85652 18.5207 5.85652 19.25C5.85652 19.9793 6.13869 20.6788 6.64096 21.1945C7.14323 21.7103 7.82446 22 8.53478 22ZM8.53478 20.1667C8.29801 20.1667 8.07093 20.0701 7.90351 19.8982C7.73608 19.7263 7.64203 19.4931 7.64203 19.25C7.64203 19.0069 7.73608 18.7737 7.90351 18.6018C8.07093 18.4299 8.29801 18.3333 8.53478 18.3333C8.77155 18.3333 8.99863 18.4299 9.16605 18.6018C9.33348 18.7737 9.42753 19.0069 9.42753 19.25C9.42753 19.4931 9.33348 19.7263 9.16605 19.8982C8.99863 20.0701 8.77155 20.1667 8.53478 20.1667ZM15.6768 22C16.0285 22 16.3768 21.9289 16.7017 21.7907C17.0267 21.6525 17.3219 21.4499 17.5706 21.1945C17.8193 20.9392 18.0166 20.636 18.1512 20.3024C18.2858 19.9687 18.3551 19.6111 18.3551 19.25C18.3551 18.8889 18.2858 18.5313 18.1512 18.1976C18.0166 17.864 17.8193 17.5608 17.5706 17.3055C17.3219 17.0501 17.0267 16.8475 16.7017 16.7093C16.3768 16.5711 16.0285 16.5 15.6768 16.5C14.9665 16.5 14.2853 16.7897 13.783 17.3055C13.2807 17.8212 12.9985 18.5207 12.9985 19.25C12.9985 19.9793 13.2807 20.6788 13.783 21.1945C14.2853 21.7103 14.9665 22 15.6768 22ZM15.6768 20.1667C15.44 20.1667 15.213 20.0701 15.0455 19.8982C14.8781 19.7263 14.7841 19.4931 14.7841 19.25C14.7841 19.0069 14.8781 18.7737 15.0455 18.6018C15.213 18.4299 15.44 18.3333 15.6768 18.3333C15.9136 18.3333 16.1407 18.4299 16.3081 18.6018C16.4755 18.7737 16.5696 19.0069 16.5696 19.25C16.5696 19.4931 16.4755 19.7263 16.3081 19.8982C16.1407 20.0701 15.9136 20.1667 15.6768 20.1667Z" fill="#545454"/>
</svg>
