<svg width="22" height="22" viewBox="0 0 22 22" fill="none" xmlns="http://www.w3.org/2000/svg">
<path d="M8.00001 20C8.79601 20.622 9.848 21 11 21C12.152 21 13.204 20.622 14 20M1.53001 13.394C1.31701 14.747 2.26801 15.686 3.43201 16.154C7.89501 17.949 14.105 17.949 18.568 16.154C19.732 15.686 20.683 14.747 20.47 13.394C20.34 12.562 19.693 11.87 19.214 11.194C18.587 10.297 18.525 9.32 18.524 8.279C18.525 4.26 15.157 1 11 1C6.843 1 3.47501 4.26 3.47501 8.28C3.47501 9.32 3.41301 10.298 2.78501 11.194C2.30701 11.87 1.66101 12.562 1.53001 13.394Z" stroke="#545454" stroke-width="1.5" stroke-linecap="round" stroke-linejoin="round"/>
</svg>
