<svg width="27" height="26" viewBox="0 0 27 26" fill="none" xmlns="http://www.w3.org/2000/svg">
<circle cx="13.5" cy="13" r="13" fill="#F2F2F2"/>
<path d="M7.32373 6.20001C7.32373 5.64773 7.77145 5.20001 8.32373 5.20001H19.3237C19.876 5.20001 20.3237 5.64773 20.3237 6.20001V14.275C20.3237 15.1639 19.0819 15.7422 18.1982 15.6461C17.4896 15.569 16.6739 15.7485 15.8652 16.508C15.8278 16.5431 15.7916 16.5842 15.7614 16.6256C15.1439 17.4712 14.9516 18.2496 14.9735 18.9155C15.0035 19.8257 14.3439 21.2 13.4332 21.2H8.32373C7.77145 21.2 7.32373 20.7523 7.32373 20.2V6.20001Z" fill="#10ABCF"/>
<path d="M9.61768 8.40002L16.5 8.40002" stroke="white" stroke-linecap="round"/>
<path d="M9.61768 10.8L18.0294 10.8" stroke="white" stroke-linecap="round"/>
<path d="M9.61768 13.2L16.5 13.2" stroke="white" stroke-linecap="round"/>
<path d="M9.61768 15.6H12.6765" stroke="white" stroke-linecap="round"/>
<path fill-rule="evenodd" clip-rule="evenodd" d="M15.7354 18.8C15.7354 17.4745 16.7624 16.4 18.0295 16.4C19.2965 16.4 20.3236 17.4745 20.3236 18.8C20.3236 20.1255 19.2965 21.2 18.0295 21.2C16.7624 21.2 15.7354 20.1255 15.7354 18.8ZM18.0295 17.84C18.0295 17.7764 18.0053 17.7153 17.9623 17.6703C17.9193 17.6253 17.8609 17.6 17.8001 17.6C17.7392 17.6 17.6809 17.6253 17.6378 17.6703C17.5948 17.7153 17.5706 17.7764 17.5706 17.84V19.04C17.5706 19.1037 17.5948 19.1647 17.6378 19.2097C17.6809 19.2547 17.7392 19.28 17.8001 19.28H18.9471C19.008 19.28 19.0663 19.2547 19.1093 19.2097C19.1524 19.1647 19.1765 19.1037 19.1765 19.04C19.1765 18.9764 19.1524 18.9153 19.1093 18.8703C19.0663 18.8253 19.008 18.8 18.9471 18.8H18.0295V17.84Z" fill="#10ABCF"/>
</svg>
